<?xml version="1.0" encoding="UTF-8"?>
<svg xmlns="http://www.w3.org/2000/svg" xmlns:xlink="http://www.w3.org/1999/xlink" width="100pt" height="100pt" viewBox="0 0 100 100" version="1.1">
<g id="surface6">
<rect x="0" y="0" width="100" height="100" style="fill:rgb(100%,100%,100%);fill-opacity:1;stroke:none;"/>
<path style="fill:none;stroke-width:1;stroke-linecap:butt;stroke-linejoin:miter;stroke:rgb(0%,0%,0%);stroke-opacity:1;stroke-miterlimit:10;" d="M 100 50 L 99.996094 49.5 L 99.988281 49 L 99.976562 48.5 L 99.960938 48 L 99.9375 47.5 L 99.910156 47 L 99.878906 46.5 L 99.839844 46.003906 L 99.796875 45.503906 L 99.75 45.003906 L 99.699219 44.507812 L 99.640625 44.011719 L 99.578125 43.515625 L 99.511719 43.019531 L 99.4375 42.523438 L 99.359375 42.03125 L 99.277344 41.535156 L 99.191406 41.042969 L 99.097656 40.550781 L 99.003906 40.0625 L 98.902344 39.570312 L 98.683594 38.59375 L 98.566406 38.109375 L 98.445312 37.625 L 98.1875 36.65625 L 98.050781 36.175781 L 97.910156 35.695312 L 97.765625 35.214844 L 97.613281 34.738281 L 97.460938 34.265625 L 97.300781 33.789062 L 97.136719 33.316406 L 96.792969 32.378906 L 96.613281 31.910156 L 96.429688 31.445312 L 96.242188 30.980469 L 96.050781 30.519531 L 95.851562 30.058594 L 95.648438 29.601562 L 95.445312 29.148438 L 95.234375 28.691406 L 94.796875 27.792969 L 94.574219 27.34375 L 94.34375 26.898438 L 94.109375 26.457031 L 93.875 26.019531 L 93.632812 25.578125 L 93.132812 24.710938 L 92.878906 24.28125 L 92.355469 23.429688 L 91.816406 22.585938 L 91.539062 22.167969 L 91.257812 21.753906 L 90.972656 21.34375 L 90.683594 20.933594 L 90.390625 20.53125 L 90.09375 20.128906 L 89.792969 19.726562 L 89.488281 19.332031 L 89.179688 18.9375 L 88.867188 18.546875 L 88.550781 18.160156 L 88.230469 17.777344 L 87.90625 17.394531 L 87.578125 17.015625 L 87.246094 16.644531 L 86.910156 16.273438 L 86.570312 15.902344 L 86.230469 15.539062 L 85.882812 15.179688 L 85.53125 14.820312 L 85.179688 14.46875 L 84.820312 14.117188 L 84.460938 13.769531 L 84.097656 13.429688 L 83.726562 13.089844 L 83.355469 12.753906 L 82.984375 12.421875 L 82.605469 12.09375 L 82.222656 11.769531 L 81.839844 11.449219 L 81.453125 11.132812 L 81.0625 10.820312 L 80.667969 10.511719 L 80.273438 10.207031 L 79.871094 9.90625 L 79.46875 9.609375 L 79.066406 9.316406 L 78.65625 9.027344 L 78.246094 8.742188 L 77.832031 8.460938 L 77.414062 8.183594 L 76.570312 7.644531 L 75.71875 7.121094 L 75.289062 6.867188 L 74.421875 6.367188 L 73.980469 6.125 L 73.542969 5.890625 L 73.101562 5.65625 L 72.65625 5.425781 L 72.207031 5.203125 L 71.308594 4.765625 L 70.851562 4.554688 L 70.398438 4.351562 L 69.941406 4.148438 L 69.480469 3.949219 L 69.019531 3.757812 L 68.554688 3.570312 L 68.089844 3.386719 L 67.621094 3.207031 L 66.683594 2.863281 L 66.210938 2.699219 L 65.734375 2.539062 L 65.261719 2.386719 L 64.785156 2.234375 L 64.304688 2.089844 L 63.824219 1.949219 L 63.34375 1.8125 L 62.375 1.554688 L 61.890625 1.433594 L 61.40625 1.316406 L 60.429688 1.097656 L 59.9375 0.996094 L 59.449219 0.902344 L 58.957031 0.808594 L 58.464844 0.722656 L 57.96875 0.640625 L 57.476562 0.5625 L 56.980469 0.488281 L 56.484375 0.421875 L 55.988281 0.359375 L 55.492188 0.300781 L 54.996094 0.25 L 54.496094 0.203125 L 53.996094 0.160156 L 53.5 0.121094 L 53 0.0898438 L 52.5 0.0625 L 52 0.0390625 L 51.5 0.0234375 L 51 0.0117188 L 50.5 0.00390625 L 50 0 L 49.5 0.00390625 L 49 0.0117188 L 48.5 0.0234375 L 48 0.0390625 L 47.5 0.0625 L 47 0.0898438 L 46.5 0.121094 L 46.003906 0.160156 L 45.503906 0.203125 L 45.003906 0.25 L 44.507812 0.300781 L 44.011719 0.359375 L 43.515625 0.421875 L 43.019531 0.488281 L 42.523438 0.5625 L 42.03125 0.640625 L 41.535156 0.722656 L 41.042969 0.808594 L 40.550781 0.902344 L 40.0625 0.996094 L 39.570312 1.097656 L 38.59375 1.316406 L 38.109375 1.433594 L 37.625 1.554688 L 36.65625 1.8125 L 36.175781 1.949219 L 35.695312 2.089844 L 35.214844 2.234375 L 34.738281 2.386719 L 34.265625 2.539062 L 33.789062 2.699219 L 33.316406 2.863281 L 32.378906 3.207031 L 31.910156 3.386719 L 31.445312 3.570312 L 30.980469 3.757812 L 30.519531 3.949219 L 30.058594 4.148438 L 29.601562 4.351562 L 29.148438 4.554688 L 28.691406 4.765625 L 27.792969 5.203125 L 27.34375 5.425781 L 26.898438 5.65625 L 26.457031 5.890625 L 26.019531 6.125 L 25.578125 6.367188 L 24.710938 6.867188 L 24.28125 7.121094 L 23.429688 7.644531 L 22.585938 8.183594 L 22.167969 8.460938 L 21.753906 8.742188 L 21.34375 9.027344 L 20.933594 9.316406 L 20.53125 9.609375 L 20.128906 9.90625 L 19.726562 10.207031 L 19.332031 10.511719 L 18.9375 10.820312 L 18.546875 11.132812 L 18.160156 11.449219 L 17.777344 11.769531 L 17.394531 12.09375 L 17.015625 12.421875 L 16.644531 12.753906 L 16.273438 13.089844 L 15.902344 13.429688 L 15.539062 13.769531 L 15.179688 14.117188 L 14.820312 14.46875 L 14.46875 14.820312 L 14.117188 15.179688 L 13.769531 15.539062 L 13.429688 15.902344 L 13.089844 16.273438 L 12.753906 16.644531 L 12.421875 17.015625 L 12.09375 17.394531 L 11.769531 17.777344 L 11.449219 18.160156 L 11.132812 18.546875 L 10.820312 18.9375 L 10.511719 19.332031 L 10.207031 19.726562 L 9.90625 20.128906 L 9.609375 20.53125 L 9.316406 20.933594 L 9.027344 21.34375 L 8.742188 21.753906 L 8.460938 22.167969 L 8.183594 22.585938 L 7.644531 23.429688 L 7.121094 24.28125 L 6.867188 24.710938 L 6.367188 25.578125 L 6.125 26.019531 L 5.890625 26.457031 L 5.65625 26.898438 L 5.425781 27.34375 L 5.203125 27.792969 L 4.765625 28.691406 L 4.554688 29.148438 L 4.351562 29.601562 L 4.148438 30.058594 L 3.949219 30.519531 L 3.757812 30.980469 L 3.570312 31.445312 L 3.386719 31.910156 L 3.207031 32.378906 L 2.863281 33.316406 L 2.699219 33.789062 L 2.539062 34.265625 L 2.386719 34.738281 L 2.234375 35.214844 L 2.089844 35.695312 L 1.949219 36.175781 L 1.8125 36.65625 L 1.554688 37.625 L 1.433594 38.109375 L 1.316406 38.59375 L 1.097656 39.570312 L 0.996094 40.0625 L 0.902344 40.550781 L 0.808594 41.042969 L 0.722656 41.535156 L 0.640625 42.03125 L 0.5625 42.523438 L 0.488281 43.019531 L 0.421875 43.515625 L 0.359375 44.011719 L 0.300781 44.507812 L 0.25 45.003906 L 0.203125 45.503906 L 0.160156 46.003906 L 0.121094 46.5 L 0.0898438 47 L 0.0625 47.5 L 0.0390625 48 L 0.0234375 48.5 L 0.0117188 49 L 0.00390625 49.5 L 0 50 L 0.00390625 50.5 L 0.0117188 51 L 0.0234375 51.5 L 0.0390625 52 L 0.0625 52.5 L 0.0898438 53 L 0.121094 53.5 L 0.160156 53.996094 L 0.203125 54.496094 L 0.25 54.996094 L 0.300781 55.492188 L 0.359375 55.988281 L 0.421875 56.484375 L 0.488281 56.980469 L 0.5625 57.476562 L 0.640625 57.96875 L 0.722656 58.464844 L 0.808594 58.957031 L 0.902344 59.449219 L 0.996094 59.9375 L 1.097656 60.429688 L 1.316406 61.40625 L 1.433594 61.890625 L 1.554688 62.375 L 1.8125 63.34375 L 1.949219 63.824219 L 2.089844 64.304688 L 2.234375 64.785156 L 2.386719 65.261719 L 2.539062 65.734375 L 2.699219 66.210938 L 2.863281 66.683594 L 3.207031 67.621094 L 3.386719 68.089844 L 3.570312 68.554688 L 3.757812 69.019531 L 3.949219 69.480469 L 4.148438 69.941406 L 4.351562 70.398438 L 4.554688 70.851562 L 4.765625 71.308594 L 5.203125 72.207031 L 5.425781 72.65625 L 5.65625 73.101562 L 5.890625 73.542969 L 6.125 73.980469 L 6.367188 74.421875 L 6.867188 75.289062 L 7.121094 75.71875 L 7.644531 76.570312 L 8.183594 77.414062 L 8.460938 77.832031 L 8.742188 78.246094 L 9.027344 78.65625 L 9.316406 79.066406 L 9.609375 79.46875 L 9.90625 79.871094 L 10.207031 80.273438 L 10.511719 80.667969 L 10.820312 81.0625 L 11.132812 81.453125 L 11.449219 81.839844 L 11.769531 82.222656 L 12.09375 82.605469 L 12.421875 82.984375 L 12.753906 83.355469 L 13.089844 83.726562 L 13.429688 84.097656 L 13.769531 84.460938 L 14.117188 84.820312 L 14.46875 85.179688 L 14.820312 85.53125 L 15.179688 85.882812 L 15.539062 86.230469 L 15.902344 86.570312 L 16.273438 86.910156 L 16.644531 87.246094 L 17.015625 87.578125 L 17.394531 87.90625 L 17.777344 88.230469 L 18.160156 88.550781 L 18.546875 88.867188 L 18.9375 89.179688 L 19.332031 89.488281 L 19.726562 89.792969 L 20.128906 90.09375 L 20.53125 90.390625 L 20.933594 90.683594 L 21.34375 90.972656 L 21.753906 91.257812 L 22.167969 91.539062 L 22.585938 91.816406 L 23.429688 92.355469 L 24.28125 92.878906 L 24.710938 93.132812 L 25.578125 93.632812 L 26.019531 93.875 L 26.457031 94.109375 L 26.898438 94.34375 L 27.34375 94.574219 L 27.792969 94.796875 L 28.691406 95.234375 L 29.148438 95.445312 L 29.601562 95.648438 L 30.058594 95.851562 L 30.519531 96.050781 L 30.980469 96.242188 L 31.445312 96.429688 L 31.910156 96.613281 L 32.378906 96.792969 L 33.316406 97.136719 L 33.789062 97.300781 L 34.265625 97.460938 L 34.738281 97.613281 L 35.214844 97.765625 L 35.695312 97.910156 L 36.175781 98.050781 L 36.65625 98.1875 L 37.625 98.445312 L 38.109375 98.566406 L 38.59375 98.683594 L 39.570312 98.902344 L 40.0625 99.003906 L 40.550781 99.097656 L 41.042969 99.191406 L 41.535156 99.277344 L 42.03125 99.359375 L 42.523438 99.4375 L 43.019531 99.511719 L 43.515625 99.578125 L 44.011719 99.640625 L 44.507812 99.699219 L 45.003906 99.75 L 45.503906 99.796875 L 46.003906 99.839844 L 46.5 99.878906 L 47 99.910156 L 47.5 99.9375 L 48 99.960938 L 48.5 99.976562 L 49 99.988281 L 49.5 99.996094 L 50 100 L 50.5 99.996094 L 51 99.988281 L 51.5 99.976562 L 52 99.960938 L 52.5 99.9375 L 53 99.910156 L 53.5 99.878906 L 53.996094 99.839844 L 54.496094 99.796875 L 54.996094 99.75 L 55.492188 99.699219 L 55.988281 99.640625 L 56.484375 99.578125 L 56.980469 99.511719 L 57.476562 99.4375 L 57.96875 99.359375 L 58.464844 99.277344 L 58.957031 99.191406 L 59.449219 99.097656 L 59.9375 99.003906 L 60.429688 98.902344 L 61.40625 98.683594 L 61.890625 98.566406 L 62.375 98.445312 L 63.34375 98.1875 L 63.824219 98.050781 L 64.304688 97.910156 L 64.785156 97.765625 L 65.261719 97.613281 L 65.734375 97.460938 L 66.210938 97.300781 L 66.683594 97.136719 L 67.621094 96.792969 L 68.089844 96.613281 L 68.554688 96.429688 L 69.019531 96.242188 L 69.480469 96.050781 L 69.941406 95.851562 L 70.398438 95.648438 L 70.851562 95.445312 L 71.308594 95.234375 L 72.207031 94.796875 L 72.65625 94.574219 L 73.101562 94.34375 L 73.542969 94.109375 L 73.980469 93.875 L 74.421875 93.632812 L 75.289062 93.132812 L 75.71875 92.878906 L 76.570312 92.355469 L 77.414062 91.816406 L 77.832031 91.539062 L 78.246094 91.257812 L 78.65625 90.972656 L 79.066406 90.683594 L 79.46875 90.390625 L 79.871094 90.09375 L 80.273438 89.792969 L 80.667969 89.488281 L 81.0625 89.179688 L 81.453125 88.867188 L 81.839844 88.550781 L 82.222656 88.230469 L 82.605469 87.90625 L 82.984375 87.578125 L 83.355469 87.246094 L 83.726562 86.910156 L 84.097656 86.570312 L 84.460938 86.230469 L 84.820312 85.882812 L 85.179688 85.53125 L 85.53125 85.179688 L 85.882812 84.820312 L 86.230469 84.460938 L 86.570312 84.097656 L 86.910156 83.726562 L 87.246094 83.355469 L 87.578125 82.984375 L 87.90625 82.605469 L 88.230469 82.222656 L 88.550781 81.839844 L 88.867188 81.453125 L 89.179688 81.0625 L 89.488281 80.667969 L 89.792969 80.273438 L 90.09375 79.871094 L 90.390625 79.46875 L 90.683594 79.066406 L 90.972656 78.65625 L 91.257812 78.246094 L 91.539062 77.832031 L 91.816406 77.414062 L 92.355469 76.570312 L 92.878906 75.71875 L 93.132812 75.289062 L 93.632812 74.421875 L 93.875 73.980469 L 94.109375 73.542969 L 94.34375 73.101562 L 94.574219 72.65625 L 94.796875 72.207031 L 95.234375 71.308594 L 95.445312 70.851562 L 95.648438 70.398438 L 95.851562 69.941406 L 96.050781 69.480469 L 96.242188 69.019531 L 96.429688 68.554688 L 96.613281 68.089844 L 96.792969 67.621094 L 97.136719 66.683594 L 97.300781 66.210938 L 97.460938 65.734375 L 97.613281 65.261719 L 97.765625 64.785156 L 97.910156 64.304688 L 98.050781 63.824219 L 98.1875 63.34375 L 98.445312 62.375 L 98.566406 61.890625 L 98.683594 61.40625 L 98.902344 60.429688 L 99.003906 59.9375 L 99.097656 59.449219 L 99.191406 58.957031 L 99.277344 58.464844 L 99.359375 57.96875 L 99.4375 57.476562 L 99.511719 56.980469 L 99.578125 56.484375 L 99.640625 55.988281 L 99.699219 55.492188 L 99.75 54.996094 L 99.796875 54.496094 L 99.839844 53.996094 L 99.878906 53.5 L 99.910156 53 L 99.9375 52.5 L 99.960938 52 L 99.976562 51.5 L 99.988281 51 L 99.996094 50.5 L 100 50 "/>
<path style="fill:none;stroke-width:1;stroke-linecap:butt;stroke-linejoin:miter;stroke:rgb(0%,0%,0%);stroke-opacity:1;stroke-miterlimit:10;" d="M 75 50 L 74.996094 49.496094 L 74.980469 48.992188 L 74.953125 48.492188 L 74.917969 47.988281 L 74.875 47.488281 L 74.816406 46.988281 L 74.753906 46.488281 L 74.675781 45.988281 L 74.589844 45.492188 L 74.496094 45 L 74.390625 44.507812 L 74.273438 44.015625 L 74.148438 43.53125 L 74.011719 43.042969 L 73.867188 42.5625 L 73.714844 42.082031 L 73.550781 41.605469 L 73.375 41.136719 L 73.191406 40.664062 L 73 40.199219 L 72.796875 39.738281 L 72.585938 39.28125 L 72.367188 38.828125 L 72.136719 38.382812 L 71.898438 37.9375 L 71.652344 37.5 L 71.394531 37.066406 L 71.128906 36.636719 L 70.855469 36.214844 L 70.574219 35.796875 L 70.285156 35.386719 L 69.984375 34.980469 L 69.679688 34.582031 L 69.363281 34.1875 L 69.042969 33.800781 L 68.710938 33.421875 L 68.375 33.046875 L 68.03125 32.683594 L 67.675781 32.324219 L 67.316406 31.96875 L 66.953125 31.625 L 66.578125 31.289062 L 66.199219 30.957031 L 65.8125 30.636719 L 65.417969 30.320312 L 65.019531 30.015625 L 64.613281 29.714844 L 64.203125 29.425781 L 63.785156 29.144531 L 63.363281 28.871094 L 62.933594 28.605469 L 62.5 28.347656 L 62.0625 28.101562 L 61.617188 27.863281 L 61.171875 27.632812 L 60.71875 27.414062 L 60.261719 27.203125 L 59.800781 27 L 59.335938 26.808594 L 58.863281 26.625 L 58.394531 26.449219 L 57.917969 26.285156 L 57.4375 26.132812 L 56.957031 25.988281 L 56.46875 25.851562 L 55.984375 25.726562 L 55.492188 25.609375 L 55 25.503906 L 54.507812 25.410156 L 54.011719 25.324219 L 53.511719 25.246094 L 53.011719 25.183594 L 52.511719 25.125 L 52.011719 25.082031 L 51.507812 25.046875 L 51.007812 25.019531 L 50.503906 25.003906 L 50 25 L 49.496094 25.003906 L 48.992188 25.019531 L 48.492188 25.046875 L 47.988281 25.082031 L 47.488281 25.125 L 46.988281 25.183594 L 46.488281 25.246094 L 45.988281 25.324219 L 45.492188 25.410156 L 45 25.503906 L 44.507812 25.609375 L 44.015625 25.726562 L 43.53125 25.851562 L 43.042969 25.988281 L 42.5625 26.132812 L 42.082031 26.285156 L 41.605469 26.449219 L 41.136719 26.625 L 40.664062 26.808594 L 40.199219 27 L 39.738281 27.203125 L 39.28125 27.414062 L 38.828125 27.632812 L 38.382812 27.863281 L 37.9375 28.101562 L 37.5 28.347656 L 37.066406 28.605469 L 36.636719 28.871094 L 36.214844 29.144531 L 35.796875 29.425781 L 35.386719 29.714844 L 34.980469 30.015625 L 34.582031 30.320312 L 34.1875 30.636719 L 33.800781 30.957031 L 33.421875 31.289062 L 33.046875 31.625 L 32.683594 31.96875 L 32.324219 32.324219 L 31.96875 32.683594 L 31.625 33.046875 L 31.289062 33.421875 L 30.957031 33.800781 L 30.636719 34.1875 L 30.320312 34.582031 L 30.015625 34.980469 L 29.714844 35.386719 L 29.425781 35.796875 L 29.144531 36.214844 L 28.871094 36.636719 L 28.605469 37.066406 L 28.347656 37.5 L 28.101562 37.9375 L 27.863281 38.382812 L 27.632812 38.828125 L 27.414062 39.28125 L 27.203125 39.738281 L 27 40.199219 L 26.808594 40.664062 L 26.625 41.136719 L 26.449219 41.605469 L 26.285156 42.082031 L 26.132812 42.5625 L 25.988281 43.042969 L 25.851562 43.53125 L 25.726562 44.015625 L 25.609375 44.507812 L 25.503906 45 L 25.410156 45.492188 L 25.324219 45.988281 L 25.246094 46.488281 L 25.183594 46.988281 L 25.125 47.488281 L 25.082031 47.988281 L 25.046875 48.492188 L 25.019531 48.992188 L 25.003906 49.496094 L 25 50 L 25.003906 50.503906 L 25.019531 51.007812 L 25.046875 51.507812 L 25.082031 52.011719 L 25.125 52.511719 L 25.183594 53.011719 L 25.246094 53.511719 L 25.324219 54.011719 L 25.410156 54.507812 L 25.503906 55 L 25.609375 55.492188 L 25.726562 55.984375 L 25.851562 56.46875 L 25.988281 56.957031 L 26.132812 57.4375 L 26.285156 57.917969 L 26.449219 58.394531 L 26.625 58.863281 L 26.808594 59.335938 L 27 59.800781 L 27.203125 60.261719 L 27.414062 60.71875 L 27.632812 61.171875 L 27.863281 61.617188 L 28.101562 62.0625 L 28.347656 62.5 L 28.605469 62.933594 L 28.871094 63.363281 L 29.144531 63.785156 L 29.425781 64.203125 L 29.714844 64.613281 L 30.015625 65.019531 L 30.320312 65.417969 L 30.636719 65.8125 L 30.957031 66.199219 L 31.289062 66.578125 L 31.625 66.953125 L 31.96875 67.316406 L 32.324219 67.675781 L 32.683594 68.03125 L 33.046875 68.375 L 33.421875 68.710938 L 33.800781 69.042969 L 34.1875 69.363281 L 34.582031 69.679688 L 34.980469 69.984375 L 35.386719 70.285156 L 35.796875 70.574219 L 36.214844 70.855469 L 36.636719 71.128906 L 37.066406 71.394531 L 37.5 71.652344 L 37.9375 71.898438 L 38.382812 72.136719 L 38.828125 72.367188 L 39.28125 72.585938 L 39.738281 72.796875 L 40.199219 73 L 40.664062 73.191406 L 41.136719 73.375 L 41.605469 73.550781 L 42.082031 73.714844 L 42.5625 73.867188 L 43.042969 74.011719 L 43.53125 74.148438 L 44.015625 74.273438 L 44.507812 74.390625 L 45 74.496094 L 45.492188 74.589844 L 45.988281 74.675781 L 46.488281 74.753906 L 46.988281 74.816406 L 47.488281 74.875 L 47.988281 74.917969 L 48.492188 74.953125 L 48.992188 74.980469 L 49.496094 74.996094 L 50 75 L 50.503906 74.996094 L 51.007812 74.980469 L 51.507812 74.953125 L 52.011719 74.917969 L 52.511719 74.875 L 53.011719 74.816406 L 53.511719 74.753906 L 54.011719 74.675781 L 54.507812 74.589844 L 55 74.496094 L 55.492188 74.390625 L 55.984375 74.273438 L 56.46875 74.148438 L 56.957031 74.011719 L 57.4375 73.867188 L 57.917969 73.714844 L 58.394531 73.550781 L 58.863281 73.375 L 59.335938 73.191406 L 59.800781 73 L 60.261719 72.796875 L 60.71875 72.585938 L 61.171875 72.367188 L 61.617188 72.136719 L 62.0625 71.898438 L 62.5 71.652344 L 62.933594 71.394531 L 63.363281 71.128906 L 63.785156 70.855469 L 64.203125 70.574219 L 64.613281 70.285156 L 65.019531 69.984375 L 65.417969 69.679688 L 65.8125 69.363281 L 66.199219 69.042969 L 66.578125 68.710938 L 66.953125 68.375 L 67.316406 68.03125 L 67.675781 67.675781 L 68.03125 67.316406 L 68.375 66.953125 L 68.710938 66.578125 L 69.042969 66.199219 L 69.363281 65.8125 L 69.679688 65.417969 L 69.984375 65.019531 L 70.285156 64.613281 L 70.574219 64.203125 L 70.855469 63.785156 L 71.128906 63.363281 L 71.394531 62.933594 L 71.652344 62.5 L 71.898438 62.0625 L 72.136719 61.617188 L 72.367188 61.171875 L 72.585938 60.71875 L 72.796875 60.261719 L 73 59.800781 L 73.191406 59.335938 L 73.375 58.863281 L 73.550781 58.394531 L 73.714844 57.917969 L 73.867188 57.4375 L 74.011719 56.957031 L 74.148438 56.46875 L 74.273438 55.984375 L 74.390625 55.492188 L 74.496094 55 L 74.589844 54.507812 L 74.675781 54.011719 L 74.753906 53.511719 L 74.816406 53.011719 L 74.875 52.511719 L 74.917969 52.011719 L 74.953125 51.507812 L 74.980469 51.007812 L 74.996094 50.503906 L 75 50 "/>
</g>
</svg>
