<?xml version="1.0" encoding="UTF-8"?>
<svg xmlns="http://www.w3.org/2000/svg" xmlns:xlink="http://www.w3.org/1999/xlink" width="120pt" height="121pt" viewBox="0 0 120 121" version="1.1">
<g id="surface141">
<rect x="0" y="0" width="120" height="121" style="fill:rgb(100%,100%,100%);fill-opacity:1;stroke:none;"/>
<path style="fill:none;stroke-width:1;stroke-linecap:butt;stroke-linejoin:miter;stroke:rgb(0%,0%,0%);stroke-opacity:1;stroke-miterlimit:10;" d="M 110 10 L 10 10 L 10 60 L 24.558594 60 L 20.808594 67.5 L 39.191406 67.5 L 35.441406 60 L 54.558594 60 L 50.808594 67.5 L 69.191406 67.5 L 65.441406 60 L 84.558594 60 L 80.808594 67.5 L 99.191406 67.5 L 95.441406 60 L 110 60 L 110 10 "/>
<path style="fill:none;stroke-width:1;stroke-linecap:butt;stroke-linejoin:miter;stroke:rgb(0%,0%,0%);stroke-opacity:1;stroke-miterlimit:10;" d="M 10 61 L 10 111 L 110 111 L 110 61 L 97.058594 61 L 100.808594 68.5 L 79.191406 68.5 L 82.941406 61 L 67.058594 61 L 70.808594 68.5 L 49.191406 68.5 L 52.941406 61 L 37.058594 61 L 40.808594 68.5 L 19.191406 68.5 L 22.941406 61 L 10 61 "/>
<path style="fill:none;stroke-width:1;stroke-linecap:butt;stroke-linejoin:miter;stroke:rgb(0%,0%,0%);stroke-opacity:1;stroke-miterlimit:10;" d="M 110 0 L 10 0 L 9.019531 0.046875 L 8.050781 0.191406 L 7.097656 0.429688 L 6.171875 0.761719 L 5.285156 1.179688 L 4.445312 1.683594 L 3.65625 2.269531 L 2.929688 2.929688 L 2.269531 3.65625 L 1.683594 4.445312 L 1.179688 5.285156 L 0.761719 6.171875 L 0.429688 7.097656 L 0.191406 8.050781 L 0.046875 9.019531 L 0 10 L 0 111 L 0.046875 111.980469 L 0.191406 112.949219 L 0.429688 113.902344 L 0.761719 114.828125 L 1.179688 115.714844 L 1.683594 116.554688 L 2.269531 117.34375 L 2.929688 118.070312 L 3.65625 118.730469 L 4.445312 119.316406 L 5.285156 119.820312 L 6.171875 120.238281 L 7.097656 120.570312 L 8.050781 120.808594 L 9.019531 120.953125 L 10 121 L 110 121 L 110.980469 120.953125 L 111.949219 120.808594 L 112.902344 120.570312 L 113.828125 120.238281 L 114.714844 119.820312 L 115.554688 119.316406 L 116.34375 118.730469 L 117.070312 118.070312 L 117.730469 117.34375 L 118.316406 116.554688 L 118.820312 115.714844 L 119.238281 114.828125 L 119.570312 113.902344 L 119.808594 112.949219 L 119.953125 111.980469 L 120 111 L 120 10 L 119.953125 9.019531 L 119.808594 8.050781 L 119.570312 7.097656 L 119.238281 6.171875 L 118.820312 5.285156 L 118.316406 4.445312 L 117.730469 3.65625 L 117.070312 2.929688 L 116.34375 2.269531 L 115.554688 1.683594 L 114.714844 1.179688 L 113.828125 0.761719 L 112.902344 0.429688 L 111.949219 0.191406 L 110.980469 0.046875 L 110 0 "/>
</g>
</svg>
