<?xml version="1.0" encoding="UTF-8"?>
<svg xmlns="http://www.w3.org/2000/svg" xmlns:xlink="http://www.w3.org/1999/xlink" width="267pt" height="267pt" viewBox="0 0 267 267" version="1.1">
<g id="surface1">
<rect x="0" y="0" width="267" height="267" style="fill:rgb(100%,100%,100%);fill-opacity:1;stroke:none;"/>
<path style="fill:none;stroke-width:1;stroke-linecap:butt;stroke-linejoin:miter;stroke:rgb(0%,0%,0%);stroke-opacity:1;stroke-miterlimit:10;" d="M 28 28 L 28 40.109375 L 20 40.109375 L 20 49.222656 L 28 49.222656 L 28 62.332031 L 20 62.332031 L 20 71.445312 L 28 71.445312 L 28 84.554688 L 20 84.554688 L 20 93.667969 L 28 93.667969 L 28 106.777344 L 20 106.777344 L 20 115.890625 L 28 115.890625 L 28 128 L 40.109375 128 L 40.109375 136 L 49.222656 136 L 49.222656 128 L 62.332031 128 L 62.332031 136 L 71.445312 136 L 71.445312 128 L 84.554688 128 L 84.554688 136 L 93.667969 136 L 93.667969 128 L 106.777344 128 L 106.777344 136 L 115.890625 136 L 115.890625 128 L 128 128 L 128 127 L 136 127 L 136 117.890625 L 128 117.890625 L 128 104.777344 L 136 104.777344 L 136 95.667969 L 128 95.667969 L 128 82.554688 L 136 82.554688 L 136 73.445312 L 128 73.445312 L 128 60.332031 L 136 60.332031 L 136 51.222656 L 128 51.222656 L 128 38.109375 L 136 38.109375 L 136 29 L 128 29 L 128 28 L 127 28 L 127 20 L 117.890625 20 L 117.890625 28 L 104.777344 28 L 104.777344 20 L 95.667969 20 L 95.667969 28 L 82.554688 28 L 82.554688 20 L 73.445312 20 L 73.445312 28 L 60.332031 28 L 60.332031 20 L 51.222656 20 L 51.222656 28 L 38.109375 28 L 38.109375 20 L 29 20 L 29 28 L 28 28 "/>
<path style="fill:none;stroke-width:1;stroke-linecap:butt;stroke-linejoin:miter;stroke:rgb(0%,0%,0%);stroke-opacity:1;stroke-miterlimit:10;" d="M 139 28 L 139 40.109375 L 131 40.109375 L 131 49.222656 L 139 49.222656 L 139 62.332031 L 131 62.332031 L 131 71.445312 L 139 71.445312 L 139 84.554688 L 131 84.554688 L 131 93.667969 L 139 93.667969 L 139 106.777344 L 131 106.777344 L 131 115.890625 L 139 115.890625 L 139 128 L 151.109375 128 L 151.109375 136 L 160.222656 136 L 160.222656 128 L 173.332031 128 L 173.332031 136 L 182.445312 136 L 182.445312 128 L 195.554688 128 L 195.554688 136 L 204.667969 136 L 204.667969 128 L 217.777344 128 L 217.777344 136 L 226.890625 136 L 226.890625 128 L 239 128 L 239 127 L 247 127 L 247 117.890625 L 239 117.890625 L 239 104.777344 L 247 104.777344 L 247 95.667969 L 239 95.667969 L 239 82.554688 L 247 82.554688 L 247 73.445312 L 239 73.445312 L 239 60.332031 L 247 60.332031 L 247 51.222656 L 239 51.222656 L 239 38.109375 L 247 38.109375 L 247 29 L 239 29 L 239 28 L 238 28 L 238 20 L 228.890625 20 L 228.890625 28 L 215.777344 28 L 215.777344 20 L 206.667969 20 L 206.667969 28 L 193.554688 28 L 193.554688 20 L 184.445312 20 L 184.445312 28 L 171.332031 28 L 171.332031 20 L 162.222656 20 L 162.222656 28 L 149.109375 28 L 149.109375 20 L 140 20 L 140 28 L 139 28 "/>
<path style="fill:none;stroke-width:1;stroke-linecap:butt;stroke-linejoin:miter;stroke:rgb(0%,0%,0%);stroke-opacity:1;stroke-miterlimit:10;" d="M 28 139 L 28 151.109375 L 20 151.109375 L 20 160.222656 L 28 160.222656 L 28 173.332031 L 20 173.332031 L 20 182.445312 L 28 182.445312 L 28 195.554688 L 20 195.554688 L 20 204.667969 L 28 204.667969 L 28 217.777344 L 20 217.777344 L 20 226.890625 L 28 226.890625 L 28 239 L 40.109375 239 L 40.109375 247 L 49.222656 247 L 49.222656 239 L 62.332031 239 L 62.332031 247 L 71.445312 247 L 71.445312 239 L 84.554688 239 L 84.554688 247 L 93.667969 247 L 93.667969 239 L 106.777344 239 L 106.777344 247 L 115.890625 247 L 115.890625 239 L 128 239 L 128 238 L 136 238 L 136 228.890625 L 128 228.890625 L 128 215.777344 L 136 215.777344 L 136 206.667969 L 128 206.667969 L 128 193.554688 L 136 193.554688 L 136 184.445312 L 128 184.445312 L 128 171.332031 L 136 171.332031 L 136 162.222656 L 128 162.222656 L 128 149.109375 L 136 149.109375 L 136 140 L 128 140 L 128 139 L 127 139 L 127 131 L 117.890625 131 L 117.890625 139 L 104.777344 139 L 104.777344 131 L 95.667969 131 L 95.667969 139 L 82.554688 139 L 82.554688 131 L 73.445312 131 L 73.445312 139 L 60.332031 139 L 60.332031 131 L 51.222656 131 L 51.222656 139 L 38.109375 139 L 38.109375 131 L 29 131 L 29 139 L 28 139 "/>
<path style="fill:none;stroke-width:1;stroke-linecap:butt;stroke-linejoin:miter;stroke:rgb(0%,0%,0%);stroke-opacity:1;stroke-miterlimit:10;" d="M 139 139 L 139 151.109375 L 131 151.109375 L 131 160.222656 L 139 160.222656 L 139 173.332031 L 131 173.332031 L 131 182.445312 L 139 182.445312 L 139 195.554688 L 131 195.554688 L 131 204.667969 L 139 204.667969 L 139 217.777344 L 131 217.777344 L 131 226.890625 L 139 226.890625 L 139 239 L 151.109375 239 L 151.109375 247 L 160.222656 247 L 160.222656 239 L 173.332031 239 L 173.332031 247 L 182.445312 247 L 182.445312 239 L 195.554688 239 L 195.554688 247 L 204.667969 247 L 204.667969 239 L 217.777344 239 L 217.777344 247 L 226.890625 247 L 226.890625 239 L 239 239 L 239 238 L 247 238 L 247 228.890625 L 239 228.890625 L 239 215.777344 L 247 215.777344 L 247 206.667969 L 239 206.667969 L 239 193.554688 L 247 193.554688 L 247 184.445312 L 239 184.445312 L 239 171.332031 L 247 171.332031 L 247 162.222656 L 239 162.222656 L 239 149.109375 L 247 149.109375 L 247 140 L 239 140 L 239 139 L 238 139 L 238 131 L 228.890625 131 L 228.890625 139 L 215.777344 139 L 215.777344 131 L 206.667969 131 L 206.667969 139 L 193.554688 139 L 193.554688 131 L 184.445312 131 L 184.445312 139 L 171.332031 139 L 171.332031 131 L 162.222656 131 L 162.222656 139 L 149.109375 139 L 149.109375 131 L 140 131 L 140 139 L 139 139 "/>
<path style="fill:none;stroke-width:1;stroke-linecap:butt;stroke-linejoin:miter;stroke:rgb(0%,0%,0%);stroke-opacity:1;stroke-miterlimit:10;" d="M 247 0 L 20 0 L 18.039062 0.0976562 L 16.097656 0.382812 L 14.195312 0.859375 L 12.347656 1.523438 L 10.570312 2.363281 L 8.886719 3.371094 L 7.3125 4.539062 L 5.859375 5.859375 L 4.539062 7.3125 L 3.371094 8.886719 L 2.363281 10.570312 L 1.523438 12.347656 L 0.859375 14.195312 L 0.382812 16.097656 L 0.0976562 18.039062 L 0 20 L 0 247 L 0.0976562 248.960938 L 0.382812 250.902344 L 0.859375 252.804688 L 1.523438 254.652344 L 2.363281 256.429688 L 3.371094 258.113281 L 4.539062 259.6875 L 5.859375 261.140625 L 7.3125 262.460938 L 8.886719 263.628906 L 10.570312 264.636719 L 12.347656 265.476562 L 14.195312 266.140625 L 16.097656 266.617188 L 18.039062 266.902344 L 20 267 L 247 267 L 248.960938 266.902344 L 250.902344 266.617188 L 252.804688 266.140625 L 254.652344 265.476562 L 256.429688 264.636719 L 258.113281 263.628906 L 259.6875 262.460938 L 261.140625 261.140625 L 262.460938 259.6875 L 263.628906 258.113281 L 264.636719 256.429688 L 265.476562 254.652344 L 266.140625 252.804688 L 266.617188 250.902344 L 266.902344 248.960938 L 267 247 L 267 20 L 266.902344 18.039062 L 266.617188 16.097656 L 266.140625 14.195312 L 265.476562 12.347656 L 264.636719 10.570312 L 263.628906 8.886719 L 262.460938 7.3125 L 261.140625 5.859375 L 259.6875 4.539062 L 258.113281 3.371094 L 256.429688 2.363281 L 254.652344 1.523438 L 252.804688 0.859375 L 250.902344 0.382812 L 248.960938 0.0976562 L 247 0 "/>
</g>
</svg>
