<?xml version="1.0" encoding="UTF-8"?>
<svg xmlns="http://www.w3.org/2000/svg" xmlns:xlink="http://www.w3.org/1999/xlink" width="110pt" height="107.706387pt" viewBox="0 0 110 107.706387" version="1.1">
<g id="surface26">
<path style=" stroke:none;fill-rule:nonzero;fill:rgb(100%,100%,100%);fill-opacity:1;" d="M 0 0 L 110 0 L 110 107.707031 L 0 107.707031 Z M 0 0 "/>
<path style="fill:none;stroke-width:1;stroke-linecap:butt;stroke-linejoin:miter;stroke:rgb(0%,0%,0%);stroke-opacity:1;stroke-miterlimit:10;" d="M 110 48.851562 L 110 58.851562 L 100 58.851562 L 100 48.851562 L 110 48.851562 "/>
<path style="fill:none;stroke-width:1;stroke-linecap:butt;stroke-linejoin:miter;stroke:rgb(0%,0%,0%);stroke-opacity:1;stroke-miterlimit:10;" d="M 110 48.851562 L 110 58.851562 L 100 58.851562 L 100 48.851562 L 110 48.851562 "/>
<path style="fill:none;stroke-width:1;stroke-linecap:butt;stroke-linejoin:miter;stroke:rgb(0%,0%,0%);stroke-opacity:1;stroke-miterlimit:10;" d="M 102.433594 82.136719 L 96.558594 90.226562 L 88.46875 84.347656 L 94.34375 76.257812 L 102.433594 82.136719 "/>
<path style="fill:none;stroke-width:1;stroke-linecap:butt;stroke-linejoin:miter;stroke:rgb(0%,0%,0%);stroke-opacity:1;stroke-miterlimit:10;" d="M 76.75 104.617188 L 67.242188 107.707031 L 64.152344 98.195312 L 73.660156 95.105469 L 76.75 104.617188 "/>
<path style="fill:none;stroke-width:1;stroke-linecap:butt;stroke-linejoin:miter;stroke:rgb(0%,0%,0%);stroke-opacity:1;stroke-miterlimit:10;" d="M 42.757812 107.707031 L 33.25 104.617188 L 36.339844 95.105469 L 45.847656 98.195312 L 42.757812 107.707031 "/>
<path style="fill:none;stroke-width:1;stroke-linecap:butt;stroke-linejoin:miter;stroke:rgb(0%,0%,0%);stroke-opacity:1;stroke-miterlimit:10;" d="M 13.441406 90.226562 L 7.566406 82.136719 L 15.65625 76.257812 L 21.53125 84.347656 L 13.441406 90.226562 "/>
<path style="fill:none;stroke-width:1;stroke-linecap:butt;stroke-linejoin:miter;stroke:rgb(0%,0%,0%);stroke-opacity:1;stroke-miterlimit:10;" d="M 0 58.851562 L 0 48.851562 L 10 48.851562 L 10 58.851562 L 0 58.851562 "/>
<path style="fill:none;stroke-width:1;stroke-linecap:butt;stroke-linejoin:miter;stroke:rgb(0%,0%,0%);stroke-opacity:1;stroke-miterlimit:10;" d="M 7.566406 25.570312 L 13.441406 17.480469 L 21.53125 23.359375 L 15.65625 31.449219 L 7.566406 25.570312 "/>
<path style="fill:none;stroke-width:1;stroke-linecap:butt;stroke-linejoin:miter;stroke:rgb(0%,0%,0%);stroke-opacity:1;stroke-miterlimit:10;" d="M 33.25 3.089844 L 42.757812 0 L 45.847656 9.511719 L 36.339844 12.601562 L 33.25 3.089844 "/>
<path style="fill:none;stroke-width:1;stroke-linecap:butt;stroke-linejoin:miter;stroke:rgb(0%,0%,0%);stroke-opacity:1;stroke-miterlimit:10;" d="M 67.242188 0 L 76.75 3.089844 L 73.660156 12.601562 L 64.152344 9.511719 L 67.242188 0 "/>
<path style="fill:none;stroke-width:1;stroke-linecap:butt;stroke-linejoin:miter;stroke:rgb(0%,0%,0%);stroke-opacity:1;stroke-miterlimit:10;" d="M 96.558594 17.480469 L 102.433594 25.570312 L 94.34375 31.449219 L 88.46875 23.359375 L 96.558594 17.480469 "/>
</g>
</svg>
