<?xml version="1.0" encoding="UTF-8"?>
<svg xmlns="http://www.w3.org/2000/svg" xmlns:xlink="http://www.w3.org/1999/xlink" width="190pt" height="14.088321pt" viewBox="0 0 190 14.088321" version="1.1">
<g id="surface31">
<path style=" stroke:none;fill-rule:nonzero;fill:rgb(100%,100%,100%);fill-opacity:1;" d="M 0 0 L 190 0 L 190 14.089844 L 0 14.089844 Z M 0 0 "/>
<path style="fill:none;stroke-width:1;stroke-linecap:butt;stroke-linejoin:miter;stroke:rgb(0%,0%,0%);stroke-opacity:1;stroke-miterlimit:10;" d="M 10 2.042969 L 10 12.042969 L 0 12.042969 L 0 2.042969 L 10 2.042969 "/>
<path style="fill:none;stroke-width:1;stroke-linecap:butt;stroke-linejoin:miter;stroke:rgb(0%,0%,0%);stroke-opacity:1;stroke-miterlimit:10;" d="M 30.792969 2.988281 L 29.054688 12.835938 L 19.207031 11.101562 L 20.945312 1.25 L 30.792969 2.988281 "/>
<path style="fill:none;stroke-width:1;stroke-linecap:butt;stroke-linejoin:miter;stroke:rgb(0%,0%,0%);stroke-opacity:1;stroke-miterlimit:10;" d="M 51.410156 4.054688 L 47.988281 13.453125 L 38.589844 10.03125 L 42.011719 0.636719 L 51.410156 4.054688 "/>
<path style="fill:none;stroke-width:1;stroke-linecap:butt;stroke-linejoin:miter;stroke:rgb(0%,0%,0%);stroke-opacity:1;stroke-miterlimit:10;" d="M 71.832031 5.214844 L 66.832031 13.875 L 58.167969 8.875 L 63.167969 0.214844 L 71.832031 5.214844 "/>
<path style="fill:none;stroke-width:1;stroke-linecap:butt;stroke-linejoin:miter;stroke:rgb(0%,0%,0%);stroke-opacity:1;stroke-miterlimit:10;" d="M 92.042969 6.429688 L 85.617188 14.089844 L 77.957031 7.660156 L 84.382812 0 L 92.042969 6.429688 "/>
<path style="fill:none;stroke-width:1;stroke-linecap:butt;stroke-linejoin:miter;stroke:rgb(0%,0%,0%);stroke-opacity:1;stroke-miterlimit:10;" d="M 112.042969 7.660156 L 104.382812 14.089844 L 97.957031 6.429688 L 105.617188 0 L 112.042969 7.660156 "/>
<path style="fill:none;stroke-width:1;stroke-linecap:butt;stroke-linejoin:miter;stroke:rgb(0%,0%,0%);stroke-opacity:1;stroke-miterlimit:10;" d="M 131.832031 8.875 L 123.167969 13.875 L 118.167969 5.214844 L 126.832031 0.214844 L 131.832031 8.875 "/>
<path style="fill:none;stroke-width:1;stroke-linecap:butt;stroke-linejoin:miter;stroke:rgb(0%,0%,0%);stroke-opacity:1;stroke-miterlimit:10;" d="M 151.410156 10.03125 L 142.011719 13.453125 L 138.589844 4.054688 L 147.988281 0.636719 L 151.410156 10.03125 "/>
<path style="fill:none;stroke-width:1;stroke-linecap:butt;stroke-linejoin:miter;stroke:rgb(0%,0%,0%);stroke-opacity:1;stroke-miterlimit:10;" d="M 170.792969 11.101562 L 160.945312 12.835938 L 159.207031 2.988281 L 169.054688 1.25 L 170.792969 11.101562 "/>
<path style="fill:none;stroke-width:1;stroke-linecap:butt;stroke-linejoin:miter;stroke:rgb(0%,0%,0%);stroke-opacity:1;stroke-miterlimit:10;" d="M 190 12.042969 L 180 12.042969 L 180 2.042969 L 190 2.042969 L 190 12.042969 "/>
</g>
</svg>
