<?xml version="1.0" encoding="UTF-8"?>
<svg xmlns="http://www.w3.org/2000/svg" xmlns:xlink="http://www.w3.org/1999/xlink" width="283.855045pt" height="330.220777pt" viewBox="0 0 283.855045 330.220777" version="1.1">
<g id="surface51">
<path style=" stroke:none;fill-rule:nonzero;fill:rgb(100%,100%,100%);fill-opacity:1;" d="M 0 0 L 283.855469 0 L 283.855469 330.222656 L 0 330.222656 Z M 0 0 "/>
<path style="fill:none;stroke-width:1;stroke-linecap:butt;stroke-linejoin:miter;stroke:rgb(0%,0%,0%);stroke-opacity:1;stroke-miterlimit:10;" d="M 212.433594 20 L 212.433594 120 L 112.433594 120 L 112.433594 20 L 212.433594 20 "/>
<path style="fill:none;stroke-width:1;stroke-linecap:butt;stroke-linejoin:miter;stroke:rgb(0%,0%,0%);stroke-opacity:1;stroke-miterlimit:10;" d="M 263.855469 181.285156 L 202.570312 232.707031 L 151.148438 171.421875 L 212.433594 120 L 263.855469 181.285156 "/>
<path style="fill:none;stroke-width:1;stroke-linecap:butt;stroke-linejoin:miter;stroke:rgb(0%,0%,0%);stroke-opacity:1;stroke-miterlimit:10;" d="M 191.457031 295.734375 L 128.429688 284.621094 L 139.542969 221.59375 L 202.570312 232.707031 L 191.457031 295.734375 "/>
<path style="fill:none;stroke-width:1;stroke-linecap:butt;stroke-linejoin:miter;stroke:rgb(0%,0%,0%);stroke-opacity:1;stroke-miterlimit:10;" d="M 84.089844 310.222656 L 58.488281 265.878906 L 102.832031 240.28125 L 128.429688 284.621094 L 84.089844 310.222656 "/>
<path style="fill:none;stroke-width:1;stroke-linecap:butt;stroke-linejoin:miter;stroke:rgb(0%,0%,0%);stroke-opacity:1;stroke-miterlimit:10;" d="M 20 251.871094 L 34.007812 213.382812 L 72.5 227.390625 L 58.488281 265.878906 L 20 251.871094 "/>
<path style="fill:none;stroke-width:1;stroke-linecap:butt;stroke-linejoin:miter;stroke:rgb(0%,0%,0%);stroke-opacity:1;stroke-miterlimit:10;" d="M 22.800781 182.589844 L 53.59375 171.382812 L 64.800781 202.175781 L 34.007812 213.382812 L 22.800781 182.589844 "/>
<path style="fill:none;stroke-width:1;stroke-linecap:butt;stroke-linejoin:miter;stroke:rgb(0%,0%,0%);stroke-opacity:1;stroke-miterlimit:10;" d="M 66.699219 148.679688 L 89.402344 161.785156 L 76.296875 184.488281 L 53.59375 171.382812 L 66.699219 148.679688 "/>
<path style="fill:none;stroke-width:1;stroke-linecap:butt;stroke-linejoin:miter;stroke:rgb(0%,0%,0%);stroke-opacity:1;stroke-miterlimit:10;" d="M 110.054688 158.144531 L 113.699219 178.796875 L 93.042969 182.441406 L 89.402344 161.785156 L 110.054688 158.144531 "/>
<path style="fill:none;stroke-width:1;stroke-linecap:butt;stroke-linejoin:miter;stroke:rgb(0%,0%,0%);stroke-opacity:1;stroke-miterlimit:10;" d="M 126.550781 189.582031 L 115.765625 202.433594 L 102.914062 191.648438 L 113.699219 178.796875 L 126.550781 189.582031 "/>
<path style="fill:none;stroke-width:1;stroke-linecap:butt;stroke-linejoin:miter;stroke:rgb(0%,0%,0%);stroke-opacity:1;stroke-miterlimit:10;" d="M 115.765625 215.855469 L 102.34375 215.855469 L 102.34375 202.433594 L 115.765625 202.433594 L 115.765625 215.855469 "/>
<path style="fill:none;stroke-width:1;stroke-linecap:butt;stroke-linejoin:miter;stroke:rgb(0%,0%,0%);stroke-opacity:1;stroke-miterlimit:10;" d="M 94.117188 222.757812 L 87.214844 214.53125 L 95.441406 207.632812 L 102.34375 215.855469 L 94.117188 222.757812 "/>
<path style="fill:none;stroke-width:1;stroke-linecap:butt;stroke-linejoin:miter;stroke:rgb(0%,0%,0%);stroke-opacity:1;stroke-miterlimit:10;" d="M 78.757812 213.042969 L 80.25 204.582031 L 88.707031 206.074219 L 87.214844 214.53125 L 78.757812 213.042969 "/>
<path style="fill:none;stroke-width:1;stroke-linecap:butt;stroke-linejoin:miter;stroke:rgb(0%,0%,0%);stroke-opacity:1;stroke-miterlimit:10;" d="M 76.8125 198.628906 L 82.765625 195.195312 L 86.199219 201.144531 L 80.25 204.582031 L 76.8125 198.628906 "/>
<path style="fill:none;stroke-width:1;stroke-linecap:butt;stroke-linejoin:miter;stroke:rgb(0%,0%,0%);stroke-opacity:1;stroke-miterlimit:10;" d="M 84.644531 190.027344 L 89.808594 191.910156 L 87.929688 197.074219 L 82.765625 195.195312 L 84.644531 190.027344 "/>
<path style="fill:none;stroke-width:1;stroke-linecap:butt;stroke-linejoin:miter;stroke:rgb(0%,0%,0%);stroke-opacity:1;stroke-miterlimit:10;" d="M 93.941406 190.40625 L 95.449219 194.539062 L 91.316406 196.042969 L 89.808594 191.910156 L 93.941406 190.40625 "/>
<path style="fill:none;stroke-width:1;stroke-linecap:butt;stroke-linejoin:miter;stroke:rgb(0%,0%,0%);stroke-opacity:1;stroke-miterlimit:10;" d="M 98.496094 196.296875 L 96.734375 199.34375 L 93.6875 197.585938 L 95.449219 194.539062 L 98.496094 196.296875 "/>
<path style="fill:none;stroke-width:1;stroke-linecap:butt;stroke-linejoin:miter;stroke:rgb(0%,0%,0%);stroke-opacity:1;stroke-miterlimit:10;" d="M 97.222656 202.117188 L 94.453125 202.605469 L 93.964844 199.832031 L 96.734375 199.34375 L 97.222656 202.117188 "/>
<path style="fill:none;stroke-width:1;stroke-linecap:butt;stroke-linejoin:miter;stroke:rgb(0%,0%,0%);stroke-opacity:1;stroke-miterlimit:10;" d="M 93.003906 204.328125 L 91.28125 202.882812 L 92.726562 201.15625 L 94.453125 202.605469 L 93.003906 204.328125 "/>
<path style="fill:none;stroke-width:1;stroke-linecap:butt;stroke-linejoin:miter;stroke:rgb(0%,0%,0%);stroke-opacity:1;stroke-miterlimit:10;" d="M 89.476562 202.882812 L 89.476562 201.082031 L 91.28125 201.082031 L 91.28125 202.882812 L 89.476562 202.882812 "/>
<path style="fill:none;stroke-width:1;stroke-linecap:butt;stroke-linejoin:miter;stroke:rgb(0%,0%,0%);stroke-opacity:1;stroke-miterlimit:10;" d="M 88.550781 199.976562 L 89.65625 199.050781 L 90.582031 200.152344 L 89.476562 201.082031 L 88.550781 199.976562 "/>
<path style="fill:none;stroke-width:1;stroke-linecap:butt;stroke-linejoin:miter;stroke:rgb(0%,0%,0%);stroke-opacity:1;stroke-miterlimit:10;" d="M 89.855469 197.914062 L 90.992188 198.113281 L 90.792969 199.25 L 89.65625 199.050781 L 89.855469 197.914062 "/>
<path style="fill:none;stroke-width:1;stroke-linecap:butt;stroke-linejoin:miter;stroke:rgb(0%,0%,0%);stroke-opacity:1;stroke-miterlimit:10;" d="M 91.789062 197.652344 L 92.25 198.453125 L 91.453125 198.914062 L 90.992188 198.113281 L 91.789062 197.652344 "/>
<path style="fill:none;stroke-width:1;stroke-linecap:butt;stroke-linejoin:miter;stroke:rgb(0%,0%,0%);stroke-opacity:1;stroke-miterlimit:10;" d="M 92.945312 198.703125 L 92.691406 199.398438 L 92 199.144531 L 92.25 198.453125 L 92.945312 198.703125 "/>
<path style="fill:none;stroke-width:1;stroke-linecap:butt;stroke-linejoin:miter;stroke:rgb(0%,0%,0%);stroke-opacity:1;stroke-miterlimit:10;" d="M 92.894531 199.953125 L 92.339844 200.15625 L 92.136719 199.601562 L 92.691406 199.398438 L 92.894531 199.953125 "/>
<path style="fill:none;stroke-width:1;stroke-linecap:butt;stroke-linejoin:miter;stroke:rgb(0%,0%,0%);stroke-opacity:1;stroke-miterlimit:10;" d="M 92.105469 200.5625 L 91.695312 200.328125 L 91.929688 199.917969 L 92.339844 200.15625 L 92.105469 200.5625 "/>
<path style="fill:none;stroke-width:1;stroke-linecap:butt;stroke-linejoin:miter;stroke:rgb(0%,0%,0%);stroke-opacity:1;stroke-miterlimit:10;" d="M 91.324219 200.394531 L 91.257812 200.019531 L 91.628906 199.957031 L 91.695312 200.328125 L 91.324219 200.394531 "/>
<path style="fill:none;stroke-width:1;stroke-linecap:butt;stroke-linejoin:miter;stroke:rgb(0%,0%,0%);stroke-opacity:1;stroke-miterlimit:10;" d="M 91.027344 199.828125 L 91.21875 199.59375 L 91.453125 199.789062 L 91.257812 200.019531 L 91.027344 199.828125 "/>
<path style="fill:none;stroke-width:1;stroke-linecap:butt;stroke-linejoin:miter;stroke:rgb(0%,0%,0%);stroke-opacity:1;stroke-miterlimit:10;" d="M 91.21875 199.355469 L 91.460938 199.355469 L 91.460938 199.59375 L 91.21875 199.59375 L 91.21875 199.355469 "/>
<path style="fill:none;stroke-width:1;stroke-linecap:butt;stroke-linejoin:miter;stroke:rgb(0%,0%,0%);stroke-opacity:1;stroke-miterlimit:10;" d="M 91.609375 199.230469 L 91.734375 199.378906 L 91.585938 199.5 L 91.460938 199.355469 L 91.609375 199.230469 "/>
<path style="fill:none;stroke-width:1;stroke-linecap:butt;stroke-linejoin:miter;stroke:rgb(0%,0%,0%);stroke-opacity:1;stroke-miterlimit:10;" d="M 91.886719 199.40625 L 91.859375 199.558594 L 91.707031 199.53125 L 91.734375 199.378906 L 91.886719 199.40625 "/>
<path style="fill:none;stroke-width:1;stroke-linecap:butt;stroke-linejoin:miter;stroke:rgb(0%,0%,0%);stroke-opacity:1;stroke-miterlimit:10;" d="M 91.921875 199.664062 L 91.8125 199.726562 L 91.753906 199.617188 L 91.859375 199.558594 L 91.921875 199.664062 "/>
<path style="fill:none;stroke-width:1;stroke-linecap:butt;stroke-linejoin:miter;stroke:rgb(0%,0%,0%);stroke-opacity:1;stroke-miterlimit:10;" d="M 91.78125 199.820312 L 91.6875 199.785156 L 91.722656 199.691406 L 91.8125 199.726562 L 91.78125 199.820312 "/>
<path style="fill:none;stroke-width:1;stroke-linecap:butt;stroke-linejoin:miter;stroke:rgb(0%,0%,0%);stroke-opacity:1;stroke-miterlimit:10;" d="M 91.613281 199.8125 L 91.585938 199.738281 L 91.660156 199.710938 L 91.6875 199.785156 L 91.613281 199.8125 "/>
<path style="fill:none;stroke-width:1;stroke-linecap:butt;stroke-linejoin:miter;stroke:rgb(0%,0%,0%);stroke-opacity:1;stroke-miterlimit:10;" d="M 91.53125 199.707031 L 91.5625 199.652344 L 91.617188 199.683594 L 91.585938 199.738281 L 91.53125 199.707031 "/>
<path style="fill:none;stroke-width:1;stroke-linecap:butt;stroke-linejoin:miter;stroke:rgb(0%,0%,0%);stroke-opacity:1;stroke-miterlimit:10;" d="M 91.554688 199.601562 L 91.605469 199.59375 L 91.613281 199.640625 L 91.5625 199.652344 L 91.554688 199.601562 "/>
<path style="fill:none;stroke-width:1;stroke-linecap:butt;stroke-linejoin:miter;stroke:rgb(0%,0%,0%);stroke-opacity:1;stroke-miterlimit:10;" d="M 91.628906 199.5625 L 91.660156 199.585938 L 91.632812 199.617188 L 91.605469 199.59375 L 91.628906 199.5625 "/>
<path style="fill:none;stroke-width:1;stroke-linecap:butt;stroke-linejoin:miter;stroke:rgb(0%,0%,0%);stroke-opacity:1;stroke-miterlimit:10;" d="M 91.691406 199.585938 L 91.691406 199.621094 L 91.660156 199.621094 L 91.660156 199.585938 L 91.691406 199.585938 "/>
<path style="fill:none;stroke-width:1;stroke-linecap:butt;stroke-linejoin:miter;stroke:rgb(0%,0%,0%);stroke-opacity:1;stroke-miterlimit:10;" d="M 91.710938 199.640625 L 91.691406 199.65625 L 91.671875 199.636719 L 91.691406 199.621094 L 91.710938 199.640625 "/>
<path style="fill:none;stroke-width:1;stroke-linecap:butt;stroke-linejoin:miter;stroke:rgb(0%,0%,0%);stroke-opacity:1;stroke-miterlimit:10;" d="M 91.6875 199.675781 L 91.664062 199.671875 L 91.667969 199.652344 L 91.691406 199.65625 L 91.6875 199.675781 "/>
<path style="fill:none;stroke-width:1;stroke-linecap:butt;stroke-linejoin:miter;stroke:rgb(0%,0%,0%);stroke-opacity:1;stroke-miterlimit:10;" d="M 91.652344 199.683594 L 91.644531 199.667969 L 91.65625 199.660156 L 91.664062 199.671875 L 91.652344 199.683594 "/>
<path style="fill:none;stroke-width:1;stroke-linecap:butt;stroke-linejoin:miter;stroke:rgb(0%,0%,0%);stroke-opacity:1;stroke-miterlimit:10;" d="M 91.628906 199.664062 L 91.636719 199.648438 L 91.648438 199.65625 L 91.644531 199.667969 L 91.628906 199.664062 "/>
<path style="fill:none;stroke-width:1;stroke-linecap:butt;stroke-linejoin:miter;stroke:rgb(0%,0%,0%);stroke-opacity:1;stroke-miterlimit:10;" d="M 91.632812 199.640625 L 91.640625 199.636719 L 91.644531 199.648438 L 91.636719 199.648438 L 91.632812 199.640625 "/>
<path style="fill:none;stroke-width:1;stroke-linecap:butt;stroke-linejoin:miter;stroke:rgb(0%,0%,0%);stroke-opacity:1;stroke-miterlimit:10;" d="M 91.644531 199.628906 L 91.652344 199.632812 L 91.648438 199.640625 L 91.640625 199.636719 L 91.644531 199.628906 "/>
<path style="fill:none;stroke-width:1;stroke-linecap:butt;stroke-linejoin:miter;stroke:rgb(0%,0%,0%);stroke-opacity:1;stroke-miterlimit:10;" d="M 91.660156 199.632812 L 91.660156 199.640625 L 91.65625 199.640625 L 91.652344 199.632812 L 91.660156 199.632812 "/>
<path style="fill:none;stroke-width:1;stroke-linecap:butt;stroke-linejoin:miter;stroke:rgb(0%,0%,0%);stroke-opacity:1;stroke-miterlimit:10;" d="M 91.664062 199.640625 L 91.660156 199.648438 L 91.65625 199.644531 L 91.660156 199.640625 L 91.664062 199.640625 "/>
<path style="fill:none;stroke-width:1;stroke-linecap:butt;stroke-linejoin:miter;stroke:rgb(0%,0%,0%);stroke-opacity:1;stroke-miterlimit:10;" d="M 91.660156 199.652344 L 91.65625 199.652344 L 91.65625 199.648438 L 91.660156 199.648438 L 91.660156 199.652344 "/>
<path style="fill:none;stroke-width:1;stroke-linecap:butt;stroke-linejoin:miter;stroke:rgb(0%,0%,0%);stroke-opacity:1;stroke-miterlimit:10;" d="M 91.65625 199.652344 L 91.652344 199.652344 L 91.65625 199.648438 L 91.65625 199.652344 "/>
<path style="fill:none;stroke-width:1;stroke-linecap:butt;stroke-linejoin:miter;stroke:rgb(0%,0%,0%);stroke-opacity:1;stroke-miterlimit:10;" d="M 91.648438 199.648438 L 91.652344 199.648438 L 91.652344 199.652344 L 91.648438 199.648438 "/>
<path style="fill:none;stroke-width:1;stroke-linecap:butt;stroke-linejoin:miter;stroke:rgb(0%,0%,0%);stroke-opacity:1;stroke-miterlimit:10;" d="M 91.648438 199.644531 L 91.652344 199.644531 L 91.648438 199.648438 L 91.648438 199.644531 "/>
<path style="fill:none;stroke-width:1;stroke-linecap:butt;stroke-linejoin:miter;stroke:rgb(0%,0%,0%);stroke-opacity:1;stroke-miterlimit:10;" d="M 91.652344 199.644531 L 91.652344 199.644531 "/>
<path style="fill:none;stroke-width:1;stroke-linecap:butt;stroke-linejoin:miter;stroke:rgb(0%,0%,0%);stroke-opacity:1;stroke-miterlimit:10;" d="M 91.65625 199.644531 L 91.652344 199.644531 L 91.65625 199.644531 "/>
<path style="fill:none;stroke-width:1;stroke-linecap:butt;stroke-linejoin:miter;stroke:rgb(0%,0%,0%);stroke-opacity:1;stroke-miterlimit:10;" d="M 91.65625 199.644531 L 91.65625 199.644531 "/>
<path style="fill:none;stroke-width:1;stroke-linecap:butt;stroke-linejoin:miter;stroke:rgb(0%,0%,0%);stroke-opacity:1;stroke-miterlimit:10;" d="M 91.65625 199.648438 L 91.65625 199.644531 L 91.65625 199.648438 "/>
<path style="fill:none;stroke-width:1;stroke-linecap:butt;stroke-linejoin:miter;stroke:rgb(0%,0%,0%);stroke-opacity:1;stroke-miterlimit:10;" d="M 91.65625 199.648438 L 91.652344 199.648438 L 91.65625 199.644531 L 91.65625 199.648438 "/>
<path style="fill:none;stroke-width:1;stroke-linecap:butt;stroke-linejoin:miter;stroke:rgb(0%,0%,0%);stroke-opacity:1;stroke-miterlimit:10;" d="M 91.652344 199.648438 L 91.652344 199.644531 L 91.652344 199.648438 "/>
<path style="fill:none;stroke-width:1;stroke-linecap:butt;stroke-linejoin:miter;stroke:rgb(0%,0%,0%);stroke-opacity:1;stroke-miterlimit:10;" d="M 91.652344 199.644531 L 91.652344 199.644531 "/>
<path style="fill:none;stroke-width:1;stroke-linecap:butt;stroke-linejoin:miter;stroke:rgb(0%,0%,0%);stroke-opacity:1;stroke-miterlimit:10;" d="M 91.652344 199.644531 L 91.652344 199.644531 "/>
<path style="fill:none;stroke-width:1;stroke-linecap:butt;stroke-linejoin:miter;stroke:rgb(0%,0%,0%);stroke-opacity:1;stroke-miterlimit:10;" d="M 91.652344 199.644531 L 91.652344 199.644531 "/>
<path style="fill:none;stroke-width:1;stroke-linecap:butt;stroke-linejoin:miter;stroke:rgb(0%,0%,0%);stroke-opacity:1;stroke-miterlimit:10;" d="M 91.65625 199.644531 L 91.652344 199.644531 L 91.65625 199.644531 "/>
<path style="fill:none;stroke-width:1;stroke-linecap:butt;stroke-linejoin:miter;stroke:rgb(0%,0%,0%);stroke-opacity:1;stroke-miterlimit:10;" d="M 91.65625 199.644531 L 91.652344 199.644531 L 91.65625 199.644531 "/>
<path style="fill:none;stroke-width:1;stroke-linecap:butt;stroke-linejoin:miter;stroke:rgb(0%,0%,0%);stroke-opacity:1;stroke-miterlimit:10;" d="M 91.652344 199.644531 L 91.652344 199.644531 "/>
<path style="fill:none;stroke-width:1;stroke-linecap:butt;stroke-linejoin:miter;stroke:rgb(0%,0%,0%);stroke-opacity:1;stroke-miterlimit:10;" d="M 263.855469 0 L 20 0 L 18.039062 0.0976562 L 16.097656 0.382812 L 14.195312 0.859375 L 12.347656 1.523438 L 10.570312 2.363281 L 8.886719 3.371094 L 7.3125 4.539062 L 5.859375 5.859375 L 4.539062 7.3125 L 3.371094 8.886719 L 2.363281 10.570312 L 1.523438 12.347656 L 0.859375 14.195312 L 0.382812 16.097656 L 0.0976562 18.039062 L 0 20 L 0 310.222656 L 0.0976562 312.179688 L 0.382812 314.121094 L 0.859375 316.027344 L 1.523438 317.875 L 2.363281 319.648438 L 3.371094 321.332031 L 4.539062 322.910156 L 5.859375 324.363281 L 7.3125 325.679688 L 8.886719 326.851562 L 10.570312 327.859375 L 12.347656 328.699219 L 14.195312 329.359375 L 16.097656 329.835938 L 18.039062 330.125 L 20 330.222656 L 263.855469 330.222656 L 265.816406 330.125 L 267.757812 329.835938 L 269.660156 329.359375 L 271.507812 328.699219 L 273.28125 327.859375 L 274.964844 326.851562 L 276.542969 325.679688 L 277.996094 324.363281 L 279.316406 322.910156 L 280.484375 321.332031 L 281.492188 319.648438 L 282.332031 317.875 L 282.992188 316.027344 L 283.472656 314.121094 L 283.757812 312.179688 L 283.855469 310.222656 L 283.855469 20 L 283.757812 18.039062 L 283.472656 16.097656 L 282.992188 14.195312 L 282.332031 12.347656 L 281.492188 10.570312 L 280.484375 8.886719 L 279.316406 7.3125 L 277.996094 5.859375 L 276.542969 4.539062 L 274.964844 3.371094 L 273.28125 2.363281 L 271.507812 1.523438 L 269.660156 0.859375 L 267.757812 0.382812 L 265.816406 0.0976562 L 263.855469 0 "/>
</g>
</svg>
