<?xml version="1.0" encoding="UTF-8"?>
<svg xmlns="http://www.w3.org/2000/svg" xmlns:xlink="http://www.w3.org/1999/xlink" width="272.650217mm" height="262.383148mm" viewBox="0 0 272.650217 262.383148" version="1.1">
<g id="surface56">
<path style=" stroke:none;fill-rule:nonzero;fill:rgb(100%,100%,100%);fill-opacity:1;" d="M 0 0 L 272.648438 0 L 272.648438 262.382812 L 0 262.382812 Z M 0 0 "/>
<path style="fill:none;stroke-width:1;stroke-linecap:butt;stroke-linejoin:miter;stroke:rgb(0%,0%,0%);stroke-opacity:1;stroke-miterlimit:10;" d="M 186.324219 20 L 186.324219 120 L 86.324219 120 L 86.324219 20 L 186.324219 20 "/>
<path style="fill:none;stroke-width:1;stroke-linecap:butt;stroke-linejoin:miter;stroke:rgb(0%,0%,0%);stroke-opacity:1;stroke-miterlimit:10;" d="M 235.566406 128.683594 L 226.882812 177.921875 L 177.644531 169.242188 L 186.324219 120 L 235.566406 128.683594 "/>
<path style="fill:none;stroke-width:1;stroke-linecap:butt;stroke-linejoin:miter;stroke:rgb(0%,0%,0%);stroke-opacity:1;stroke-miterlimit:10;" d="M 86.324219 120 L 95.007812 169.242188 L 45.765625 177.921875 L 37.085938 128.683594 L 86.324219 120 "/>
<path style="fill:none;stroke-width:1;stroke-linecap:butt;stroke-linejoin:miter;stroke:rgb(0%,0%,0%);stroke-opacity:1;stroke-miterlimit:10;" d="M 250.375 186.472656 L 241.824219 209.964844 L 218.332031 201.414062 L 226.882812 177.921875 L 250.375 186.472656 "/>
<path style="fill:none;stroke-width:1;stroke-linecap:butt;stroke-linejoin:miter;stroke:rgb(0%,0%,0%);stroke-opacity:1;stroke-miterlimit:10;" d="M 177.644531 169.242188 L 177.644531 194.242188 L 152.644531 194.242188 L 152.644531 169.242188 L 177.644531 169.242188 "/>
<path style="fill:none;stroke-width:1;stroke-linecap:butt;stroke-linejoin:miter;stroke:rgb(0%,0%,0%);stroke-opacity:1;stroke-miterlimit:10;" d="M 252.648438 216.214844 L 246.398438 227.039062 L 235.574219 220.789062 L 241.824219 209.964844 L 252.648438 216.214844 "/>
<path style="fill:none;stroke-width:1;stroke-linecap:butt;stroke-linejoin:miter;stroke:rgb(0%,0%,0%);stroke-opacity:1;stroke-miterlimit:10;" d="M 218.332031 201.414062 L 216.160156 213.726562 L 203.851562 211.554688 L 206.023438 199.246094 L 218.332031 201.414062 "/>
<path style="fill:none;stroke-width:1;stroke-linecap:butt;stroke-linejoin:miter;stroke:rgb(0%,0%,0%);stroke-opacity:1;stroke-miterlimit:10;" d="M 251.1875 231.058594 L 247.171875 235.847656 L 242.382812 231.828125 L 246.398438 227.039062 L 251.1875 231.058594 "/>
<path style="fill:none;stroke-width:1;stroke-linecap:butt;stroke-linejoin:miter;stroke:rgb(0%,0%,0%);stroke-opacity:1;stroke-miterlimit:10;" d="M 235.574219 220.789062 L 233.4375 226.664062 L 227.5625 224.527344 L 229.703125 218.652344 L 235.574219 220.789062 "/>
<path style="fill:none;stroke-width:1;stroke-linecap:butt;stroke-linejoin:miter;stroke:rgb(0%,0%,0%);stroke-opacity:1;stroke-miterlimit:10;" d="M 249.179688 238.238281 L 246.785156 240.25 L 244.777344 237.855469 L 247.171875 235.847656 L 249.179688 238.238281 "/>
<path style="fill:none;stroke-width:1;stroke-linecap:butt;stroke-linejoin:miter;stroke:rgb(0%,0%,0%);stroke-opacity:1;stroke-miterlimit:10;" d="M 242.382812 231.828125 L 240.820312 234.535156 L 238.113281 232.972656 L 239.675781 230.265625 L 242.382812 231.828125 "/>
<path style="fill:none;stroke-width:1;stroke-linecap:butt;stroke-linejoin:miter;stroke:rgb(0%,0%,0%);stroke-opacity:1;stroke-miterlimit:10;" d="M 247.566406 241.601562 L 246.214844 242.382812 L 245.433594 241.03125 L 246.785156 240.25 L 247.566406 241.601562 "/>
<path style="fill:none;stroke-width:1;stroke-linecap:butt;stroke-linejoin:miter;stroke:rgb(0%,0%,0%);stroke-opacity:1;stroke-miterlimit:10;" d="M 244.777344 237.855469 L 243.773438 239.050781 L 242.574219 238.046875 L 243.578125 236.851562 L 244.777344 237.855469 "/>
<path style="fill:none;stroke-width:1;stroke-linecap:butt;stroke-linejoin:miter;stroke:rgb(0%,0%,0%);stroke-opacity:1;stroke-miterlimit:10;" d="M 242.015625 235.539062 L 241.011719 236.738281 L 239.816406 235.730469 L 240.820312 234.535156 L 242.015625 235.539062 "/>
<path style="fill:none;stroke-width:1;stroke-linecap:butt;stroke-linejoin:miter;stroke:rgb(0%,0%,0%);stroke-opacity:1;stroke-miterlimit:10;" d="M 238.113281 232.972656 L 237.578125 234.441406 L 236.109375 233.90625 L 236.644531 232.4375 L 238.113281 232.972656 "/>
<path style="fill:none;stroke-width:1;stroke-linecap:butt;stroke-linejoin:miter;stroke:rgb(0%,0%,0%);stroke-opacity:1;stroke-miterlimit:10;" d="M 236.144531 228.226562 L 234.582031 230.933594 L 231.875 229.371094 L 233.4375 226.664062 L 236.144531 228.226562 "/>
<path style="fill:none;stroke-width:1;stroke-linecap:butt;stroke-linejoin:miter;stroke:rgb(0%,0%,0%);stroke-opacity:1;stroke-miterlimit:10;" d="M 227.5625 224.527344 L 227.023438 227.605469 L 223.945312 227.0625 L 224.488281 223.984375 L 227.5625 224.527344 "/>
<path style="fill:none;stroke-width:1;stroke-linecap:butt;stroke-linejoin:miter;stroke:rgb(0%,0%,0%);stroke-opacity:1;stroke-miterlimit:10;" d="M 235.777344 231.9375 L 234.773438 233.132812 L 233.578125 232.128906 L 234.582031 230.933594 L 235.777344 231.9375 "/>
<path style="fill:none;stroke-width:1;stroke-linecap:butt;stroke-linejoin:miter;stroke:rgb(0%,0%,0%);stroke-opacity:1;stroke-miterlimit:10;" d="M 231.875 229.371094 L 231.339844 230.839844 L 229.871094 230.304688 L 230.40625 228.835938 L 231.875 229.371094 "/>
<path style="fill:none;stroke-width:1;stroke-linecap:butt;stroke-linejoin:miter;stroke:rgb(0%,0%,0%);stroke-opacity:1;stroke-miterlimit:10;" d="M 228.488281 228.136719 L 227.957031 229.605469 L 226.488281 229.070312 L 227.023438 227.605469 L 228.488281 228.136719 "/>
<path style="fill:none;stroke-width:1;stroke-linecap:butt;stroke-linejoin:miter;stroke:rgb(0%,0%,0%);stroke-opacity:1;stroke-miterlimit:10;" d="M 223.945312 227.0625 L 223.945312 228.625 L 222.382812 228.625 L 222.382812 227.0625 L 223.945312 227.0625 "/>
<path style="fill:none;stroke-width:1;stroke-linecap:butt;stroke-linejoin:miter;stroke:rgb(0%,0%,0%);stroke-opacity:1;stroke-miterlimit:10;" d="M 222.035156 215.863281 L 219.898438 221.734375 L 214.023438 219.597656 L 216.160156 213.726562 L 222.035156 215.863281 "/>
<path style="fill:none;stroke-width:1;stroke-linecap:butt;stroke-linejoin:miter;stroke:rgb(0%,0%,0%);stroke-opacity:1;stroke-miterlimit:10;" d="M 203.851562 211.554688 L 203.851562 217.804688 L 197.601562 217.804688 L 197.601562 211.554688 L 203.851562 211.554688 "/>
<path style="fill:none;stroke-width:1;stroke-linecap:butt;stroke-linejoin:miter;stroke:rgb(0%,0%,0%);stroke-opacity:1;stroke-miterlimit:10;" d="M 222.605469 223.296875 L 221.042969 226.003906 L 218.335938 224.441406 L 219.898438 221.734375 L 222.605469 223.296875 "/>
<path style="fill:none;stroke-width:1;stroke-linecap:butt;stroke-linejoin:miter;stroke:rgb(0%,0%,0%);stroke-opacity:1;stroke-miterlimit:10;" d="M 214.023438 219.597656 L 213.480469 222.675781 L 210.402344 222.132812 L 210.945312 219.054688 L 214.023438 219.597656 "/>
<path style="fill:none;stroke-width:1;stroke-linecap:butt;stroke-linejoin:miter;stroke:rgb(0%,0%,0%);stroke-opacity:1;stroke-miterlimit:10;" d="M 222.238281 227.007812 L 221.234375 228.207031 L 220.035156 227.203125 L 221.042969 226.003906 L 222.238281 227.007812 "/>
<path style="fill:none;stroke-width:1;stroke-linecap:butt;stroke-linejoin:miter;stroke:rgb(0%,0%,0%);stroke-opacity:1;stroke-miterlimit:10;" d="M 218.335938 224.441406 L 217.800781 225.910156 L 216.332031 225.375 L 216.867188 223.90625 L 218.335938 224.441406 "/>
<path style="fill:none;stroke-width:1;stroke-linecap:butt;stroke-linejoin:miter;stroke:rgb(0%,0%,0%);stroke-opacity:1;stroke-miterlimit:10;" d="M 214.949219 223.210938 L 214.414062 224.679688 L 212.949219 224.144531 L 213.480469 222.675781 L 214.949219 223.210938 "/>
<path style="fill:none;stroke-width:1;stroke-linecap:butt;stroke-linejoin:miter;stroke:rgb(0%,0%,0%);stroke-opacity:1;stroke-miterlimit:10;" d="M 210.402344 222.132812 L 210.402344 223.695312 L 208.839844 223.695312 L 208.839844 222.132812 L 210.402344 222.132812 "/>
<path style="fill:none;stroke-width:1;stroke-linecap:butt;stroke-linejoin:miter;stroke:rgb(0%,0%,0%);stroke-opacity:1;stroke-miterlimit:10;" d="M 206.929688 218.347656 L 206.386719 221.425781 L 203.308594 220.882812 L 203.851562 217.804688 L 206.929688 218.347656 "/>
<path style="fill:none;stroke-width:1;stroke-linecap:butt;stroke-linejoin:miter;stroke:rgb(0%,0%,0%);stroke-opacity:1;stroke-miterlimit:10;" d="M 197.601562 217.804688 L 198.144531 220.882812 L 195.066406 221.425781 L 194.523438 218.347656 L 197.601562 217.804688 "/>
<path style="fill:none;stroke-width:1;stroke-linecap:butt;stroke-linejoin:miter;stroke:rgb(0%,0%,0%);stroke-opacity:1;stroke-miterlimit:10;" d="M 207.855469 221.960938 L 207.320312 223.425781 L 205.851562 222.894531 L 206.386719 221.425781 L 207.855469 221.960938 "/>
<path style="fill:none;stroke-width:1;stroke-linecap:butt;stroke-linejoin:miter;stroke:rgb(0%,0%,0%);stroke-opacity:1;stroke-miterlimit:10;" d="M 203.308594 220.882812 L 203.308594 222.445312 L 201.746094 222.445312 L 201.746094 220.882812 L 203.308594 220.882812 "/>
<path style="fill:none;stroke-width:1;stroke-linecap:butt;stroke-linejoin:miter;stroke:rgb(0%,0%,0%);stroke-opacity:1;stroke-miterlimit:10;" d="M 199.707031 220.882812 L 199.707031 222.445312 L 198.144531 222.445312 L 198.144531 220.882812 L 199.707031 220.882812 "/>
<path style="fill:none;stroke-width:1;stroke-linecap:butt;stroke-linejoin:miter;stroke:rgb(0%,0%,0%);stroke-opacity:1;stroke-miterlimit:10;" d="M 195.066406 221.425781 L 195.601562 222.894531 L 194.132812 223.425781 L 193.597656 221.960938 L 195.066406 221.425781 "/>
<path style="fill:none;stroke-width:1;stroke-linecap:butt;stroke-linejoin:miter;stroke:rgb(0%,0%,0%);stroke-opacity:1;stroke-miterlimit:10;" d="M 189.953125 196.410156 L 187.78125 208.722656 L 175.472656 206.550781 L 177.644531 194.242188 L 189.953125 196.410156 "/>
<path style="fill:none;stroke-width:1;stroke-linecap:butt;stroke-linejoin:miter;stroke:rgb(0%,0%,0%);stroke-opacity:1;stroke-miterlimit:10;" d="M 152.644531 194.242188 L 154.8125 206.550781 L 142.503906 208.722656 L 140.332031 196.410156 L 152.644531 194.242188 "/>
<path style="fill:none;stroke-width:1;stroke-linecap:butt;stroke-linejoin:miter;stroke:rgb(0%,0%,0%);stroke-opacity:1;stroke-miterlimit:10;" d="M 193.65625 210.859375 L 191.519531 216.730469 L 185.644531 214.59375 L 187.78125 208.722656 L 193.65625 210.859375 "/>
<path style="fill:none;stroke-width:1;stroke-linecap:butt;stroke-linejoin:miter;stroke:rgb(0%,0%,0%);stroke-opacity:1;stroke-miterlimit:10;" d="M 175.472656 206.550781 L 175.472656 212.800781 L 169.222656 212.800781 L 169.222656 206.550781 L 175.472656 206.550781 "/>
<path style="fill:none;stroke-width:1;stroke-linecap:butt;stroke-linejoin:miter;stroke:rgb(0%,0%,0%);stroke-opacity:1;stroke-miterlimit:10;" d="M 194.222656 218.292969 L 192.660156 221 L 189.957031 219.4375 L 191.519531 216.730469 L 194.222656 218.292969 "/>
<path style="fill:none;stroke-width:1;stroke-linecap:butt;stroke-linejoin:miter;stroke:rgb(0%,0%,0%);stroke-opacity:1;stroke-miterlimit:10;" d="M 185.644531 214.59375 L 185.101562 217.671875 L 182.023438 217.128906 L 182.566406 214.050781 L 185.644531 214.59375 "/>
<path style="fill:none;stroke-width:1;stroke-linecap:butt;stroke-linejoin:miter;stroke:rgb(0%,0%,0%);stroke-opacity:1;stroke-miterlimit:10;" d="M 193.859375 222.003906 L 192.855469 223.203125 L 191.65625 222.199219 L 192.660156 221 L 193.859375 222.003906 "/>
<path style="fill:none;stroke-width:1;stroke-linecap:butt;stroke-linejoin:miter;stroke:rgb(0%,0%,0%);stroke-opacity:1;stroke-miterlimit:10;" d="M 189.957031 219.4375 L 189.421875 220.90625 L 187.953125 220.371094 L 188.488281 218.902344 L 189.957031 219.4375 "/>
<path style="fill:none;stroke-width:1;stroke-linecap:butt;stroke-linejoin:miter;stroke:rgb(0%,0%,0%);stroke-opacity:1;stroke-miterlimit:10;" d="M 186.570312 218.207031 L 186.035156 219.675781 L 184.566406 219.140625 L 185.101562 217.671875 L 186.570312 218.207031 "/>
<path style="fill:none;stroke-width:1;stroke-linecap:butt;stroke-linejoin:miter;stroke:rgb(0%,0%,0%);stroke-opacity:1;stroke-miterlimit:10;" d="M 182.023438 217.128906 L 182.023438 218.691406 L 180.460938 218.691406 L 180.460938 217.128906 L 182.023438 217.128906 "/>
<path style="fill:none;stroke-width:1;stroke-linecap:butt;stroke-linejoin:miter;stroke:rgb(0%,0%,0%);stroke-opacity:1;stroke-miterlimit:10;" d="M 178.550781 213.34375 L 178.007812 216.421875 L 174.929688 215.878906 L 175.472656 212.800781 L 178.550781 213.34375 "/>
<path style="fill:none;stroke-width:1;stroke-linecap:butt;stroke-linejoin:miter;stroke:rgb(0%,0%,0%);stroke-opacity:1;stroke-miterlimit:10;" d="M 169.222656 212.800781 L 169.765625 215.878906 L 166.6875 216.421875 L 166.144531 213.34375 L 169.222656 212.800781 "/>
<path style="fill:none;stroke-width:1;stroke-linecap:butt;stroke-linejoin:miter;stroke:rgb(0%,0%,0%);stroke-opacity:1;stroke-miterlimit:10;" d="M 179.476562 216.953125 L 178.941406 218.421875 L 177.472656 217.890625 L 178.007812 216.421875 L 179.476562 216.953125 "/>
<path style="fill:none;stroke-width:1;stroke-linecap:butt;stroke-linejoin:miter;stroke:rgb(0%,0%,0%);stroke-opacity:1;stroke-miterlimit:10;" d="M 174.929688 215.878906 L 174.929688 217.441406 L 173.367188 217.441406 L 173.367188 215.878906 L 174.929688 215.878906 "/>
<path style="fill:none;stroke-width:1;stroke-linecap:butt;stroke-linejoin:miter;stroke:rgb(0%,0%,0%);stroke-opacity:1;stroke-miterlimit:10;" d="M 171.328125 215.878906 L 171.328125 217.441406 L 169.765625 217.441406 L 169.765625 215.878906 L 171.328125 215.878906 "/>
<path style="fill:none;stroke-width:1;stroke-linecap:butt;stroke-linejoin:miter;stroke:rgb(0%,0%,0%);stroke-opacity:1;stroke-miterlimit:10;" d="M 166.6875 216.421875 L 167.222656 217.890625 L 165.753906 218.421875 L 165.21875 216.953125 L 166.6875 216.421875 "/>
<path style="fill:none;stroke-width:1;stroke-linecap:butt;stroke-linejoin:miter;stroke:rgb(0%,0%,0%);stroke-opacity:1;stroke-miterlimit:10;" d="M 161.0625 206.550781 L 161.0625 212.800781 L 154.8125 212.800781 L 154.8125 206.550781 L 161.0625 206.550781 "/>
<path style="fill:none;stroke-width:1;stroke-linecap:butt;stroke-linejoin:miter;stroke:rgb(0%,0%,0%);stroke-opacity:1;stroke-miterlimit:10;" d="M 142.503906 208.722656 L 144.640625 214.59375 L 138.769531 216.730469 L 136.628906 210.859375 L 142.503906 208.722656 "/>
<path style="fill:none;stroke-width:1;stroke-linecap:butt;stroke-linejoin:miter;stroke:rgb(0%,0%,0%);stroke-opacity:1;stroke-miterlimit:10;" d="M 164.140625 213.34375 L 163.597656 216.421875 L 160.519531 215.878906 L 161.0625 212.800781 L 164.140625 213.34375 "/>
<path style="fill:none;stroke-width:1;stroke-linecap:butt;stroke-linejoin:miter;stroke:rgb(0%,0%,0%);stroke-opacity:1;stroke-miterlimit:10;" d="M 154.8125 212.800781 L 155.355469 215.878906 L 152.277344 216.421875 L 151.734375 213.34375 L 154.8125 212.800781 "/>
<path style="fill:none;stroke-width:1;stroke-linecap:butt;stroke-linejoin:miter;stroke:rgb(0%,0%,0%);stroke-opacity:1;stroke-miterlimit:10;" d="M 165.066406 216.953125 L 164.53125 218.421875 L 163.0625 217.890625 L 163.597656 216.421875 L 165.066406 216.953125 "/>
<path style="fill:none;stroke-width:1;stroke-linecap:butt;stroke-linejoin:miter;stroke:rgb(0%,0%,0%);stroke-opacity:1;stroke-miterlimit:10;" d="M 160.519531 215.878906 L 160.519531 217.441406 L 158.957031 217.441406 L 158.957031 215.878906 L 160.519531 215.878906 "/>
<path style="fill:none;stroke-width:1;stroke-linecap:butt;stroke-linejoin:miter;stroke:rgb(0%,0%,0%);stroke-opacity:1;stroke-miterlimit:10;" d="M 156.917969 215.878906 L 156.917969 217.441406 L 155.355469 217.441406 L 155.355469 215.878906 L 156.917969 215.878906 "/>
<path style="fill:none;stroke-width:1;stroke-linecap:butt;stroke-linejoin:miter;stroke:rgb(0%,0%,0%);stroke-opacity:1;stroke-miterlimit:10;" d="M 152.277344 216.421875 L 152.8125 217.890625 L 151.34375 218.421875 L 150.808594 216.953125 L 152.277344 216.421875 "/>
<path style="fill:none;stroke-width:1;stroke-linecap:butt;stroke-linejoin:miter;stroke:rgb(0%,0%,0%);stroke-opacity:1;stroke-miterlimit:10;" d="M 147.71875 214.050781 L 148.261719 217.128906 L 145.183594 217.671875 L 144.640625 214.59375 L 147.71875 214.050781 "/>
<path style="fill:none;stroke-width:1;stroke-linecap:butt;stroke-linejoin:miter;stroke:rgb(0%,0%,0%);stroke-opacity:1;stroke-miterlimit:10;" d="M 138.769531 216.730469 L 140.332031 219.4375 L 137.625 221 L 136.0625 218.292969 L 138.769531 216.730469 "/>
<path style="fill:none;stroke-width:1;stroke-linecap:butt;stroke-linejoin:miter;stroke:rgb(0%,0%,0%);stroke-opacity:1;stroke-miterlimit:10;" d="M 149.824219 217.128906 L 149.824219 218.691406 L 148.261719 218.691406 L 148.261719 217.128906 L 149.824219 217.128906 "/>
<path style="fill:none;stroke-width:1;stroke-linecap:butt;stroke-linejoin:miter;stroke:rgb(0%,0%,0%);stroke-opacity:1;stroke-miterlimit:10;" d="M 145.183594 217.671875 L 145.71875 219.140625 L 144.25 219.675781 L 143.714844 218.207031 L 145.183594 217.671875 "/>
<path style="fill:none;stroke-width:1;stroke-linecap:butt;stroke-linejoin:miter;stroke:rgb(0%,0%,0%);stroke-opacity:1;stroke-miterlimit:10;" d="M 141.796875 218.902344 L 142.332031 220.371094 L 140.863281 220.90625 L 140.332031 219.4375 L 141.796875 218.902344 "/>
<path style="fill:none;stroke-width:1;stroke-linecap:butt;stroke-linejoin:miter;stroke:rgb(0%,0%,0%);stroke-opacity:1;stroke-miterlimit:10;" d="M 137.625 221 L 138.628906 222.199219 L 137.429688 223.203125 L 136.425781 222.003906 L 137.625 221 "/>
<path style="fill:none;stroke-width:1;stroke-linecap:butt;stroke-linejoin:miter;stroke:rgb(0%,0%,0%);stroke-opacity:1;stroke-miterlimit:10;" d="M 120.007812 169.242188 L 120.007812 194.242188 L 95.007812 194.242188 L 95.007812 169.242188 L 120.007812 169.242188 "/>
<path style="fill:none;stroke-width:1;stroke-linecap:butt;stroke-linejoin:miter;stroke:rgb(0%,0%,0%);stroke-opacity:1;stroke-miterlimit:10;" d="M 45.765625 177.921875 L 54.316406 201.414062 L 30.824219 209.964844 L 22.273438 186.472656 L 45.765625 177.921875 "/>
<path style="fill:none;stroke-width:1;stroke-linecap:butt;stroke-linejoin:miter;stroke:rgb(0%,0%,0%);stroke-opacity:1;stroke-miterlimit:10;" d="M 132.316406 196.410156 L 130.148438 208.722656 L 117.835938 206.550781 L 120.007812 194.242188 L 132.316406 196.410156 "/>
<path style="fill:none;stroke-width:1;stroke-linecap:butt;stroke-linejoin:miter;stroke:rgb(0%,0%,0%);stroke-opacity:1;stroke-miterlimit:10;" d="M 95.007812 194.242188 L 97.179688 206.550781 L 84.867188 208.722656 L 82.699219 196.410156 L 95.007812 194.242188 "/>
<path style="fill:none;stroke-width:1;stroke-linecap:butt;stroke-linejoin:miter;stroke:rgb(0%,0%,0%);stroke-opacity:1;stroke-miterlimit:10;" d="M 136.019531 210.859375 L 133.882812 216.730469 L 128.007812 214.59375 L 130.148438 208.722656 L 136.019531 210.859375 "/>
<path style="fill:none;stroke-width:1;stroke-linecap:butt;stroke-linejoin:miter;stroke:rgb(0%,0%,0%);stroke-opacity:1;stroke-miterlimit:10;" d="M 117.835938 206.550781 L 117.835938 212.800781 L 111.585938 212.800781 L 111.585938 206.550781 L 117.835938 206.550781 "/>
<path style="fill:none;stroke-width:1;stroke-linecap:butt;stroke-linejoin:miter;stroke:rgb(0%,0%,0%);stroke-opacity:1;stroke-miterlimit:10;" d="M 136.589844 218.292969 L 135.027344 221 L 132.320312 219.4375 L 133.882812 216.730469 L 136.589844 218.292969 "/>
<path style="fill:none;stroke-width:1;stroke-linecap:butt;stroke-linejoin:miter;stroke:rgb(0%,0%,0%);stroke-opacity:1;stroke-miterlimit:10;" d="M 128.007812 214.59375 L 127.464844 217.671875 L 124.390625 217.128906 L 124.933594 214.050781 L 128.007812 214.59375 "/>
<path style="fill:none;stroke-width:1;stroke-linecap:butt;stroke-linejoin:miter;stroke:rgb(0%,0%,0%);stroke-opacity:1;stroke-miterlimit:10;" d="M 136.222656 222.003906 L 135.21875 223.203125 L 134.023438 222.199219 L 135.027344 221 L 136.222656 222.003906 "/>
<path style="fill:none;stroke-width:1;stroke-linecap:butt;stroke-linejoin:miter;stroke:rgb(0%,0%,0%);stroke-opacity:1;stroke-miterlimit:10;" d="M 132.320312 219.4375 L 131.785156 220.90625 L 130.316406 220.371094 L 130.851562 218.902344 L 132.320312 219.4375 "/>
<path style="fill:none;stroke-width:1;stroke-linecap:butt;stroke-linejoin:miter;stroke:rgb(0%,0%,0%);stroke-opacity:1;stroke-miterlimit:10;" d="M 128.933594 218.207031 L 128.402344 219.675781 L 126.933594 219.140625 L 127.464844 217.671875 L 128.933594 218.207031 "/>
<path style="fill:none;stroke-width:1;stroke-linecap:butt;stroke-linejoin:miter;stroke:rgb(0%,0%,0%);stroke-opacity:1;stroke-miterlimit:10;" d="M 124.390625 217.128906 L 124.390625 218.691406 L 122.828125 218.691406 L 122.828125 217.128906 L 124.390625 217.128906 "/>
<path style="fill:none;stroke-width:1;stroke-linecap:butt;stroke-linejoin:miter;stroke:rgb(0%,0%,0%);stroke-opacity:1;stroke-miterlimit:10;" d="M 120.914062 213.34375 L 120.371094 216.421875 L 117.292969 215.878906 L 117.835938 212.800781 L 120.914062 213.34375 "/>
<path style="fill:none;stroke-width:1;stroke-linecap:butt;stroke-linejoin:miter;stroke:rgb(0%,0%,0%);stroke-opacity:1;stroke-miterlimit:10;" d="M 111.585938 212.800781 L 112.128906 215.878906 L 109.050781 216.421875 L 108.507812 213.34375 L 111.585938 212.800781 "/>
<path style="fill:none;stroke-width:1;stroke-linecap:butt;stroke-linejoin:miter;stroke:rgb(0%,0%,0%);stroke-opacity:1;stroke-miterlimit:10;" d="M 121.839844 216.953125 L 121.304688 218.421875 L 119.835938 217.890625 L 120.371094 216.421875 L 121.839844 216.953125 "/>
<path style="fill:none;stroke-width:1;stroke-linecap:butt;stroke-linejoin:miter;stroke:rgb(0%,0%,0%);stroke-opacity:1;stroke-miterlimit:10;" d="M 117.292969 215.878906 L 117.292969 217.441406 L 115.730469 217.441406 L 115.730469 215.878906 L 117.292969 215.878906 "/>
<path style="fill:none;stroke-width:1;stroke-linecap:butt;stroke-linejoin:miter;stroke:rgb(0%,0%,0%);stroke-opacity:1;stroke-miterlimit:10;" d="M 113.691406 215.878906 L 113.691406 217.441406 L 112.128906 217.441406 L 112.128906 215.878906 L 113.691406 215.878906 "/>
<path style="fill:none;stroke-width:1;stroke-linecap:butt;stroke-linejoin:miter;stroke:rgb(0%,0%,0%);stroke-opacity:1;stroke-miterlimit:10;" d="M 109.050781 216.421875 L 109.585938 217.890625 L 108.117188 218.421875 L 107.582031 216.953125 L 109.050781 216.421875 "/>
<path style="fill:none;stroke-width:1;stroke-linecap:butt;stroke-linejoin:miter;stroke:rgb(0%,0%,0%);stroke-opacity:1;stroke-miterlimit:10;" d="M 103.429688 206.550781 L 103.429688 212.800781 L 97.179688 212.800781 L 97.179688 206.550781 L 103.429688 206.550781 "/>
<path style="fill:none;stroke-width:1;stroke-linecap:butt;stroke-linejoin:miter;stroke:rgb(0%,0%,0%);stroke-opacity:1;stroke-miterlimit:10;" d="M 84.867188 208.722656 L 87.003906 214.59375 L 81.132812 216.730469 L 78.996094 210.859375 L 84.867188 208.722656 "/>
<path style="fill:none;stroke-width:1;stroke-linecap:butt;stroke-linejoin:miter;stroke:rgb(0%,0%,0%);stroke-opacity:1;stroke-miterlimit:10;" d="M 106.503906 213.34375 L 105.964844 216.421875 L 102.886719 215.878906 L 103.429688 212.800781 L 106.503906 213.34375 "/>
<path style="fill:none;stroke-width:1;stroke-linecap:butt;stroke-linejoin:miter;stroke:rgb(0%,0%,0%);stroke-opacity:1;stroke-miterlimit:10;" d="M 97.179688 212.800781 L 97.722656 215.878906 L 94.644531 216.421875 L 94.101562 213.34375 L 97.179688 212.800781 "/>
<path style="fill:none;stroke-width:1;stroke-linecap:butt;stroke-linejoin:miter;stroke:rgb(0%,0%,0%);stroke-opacity:1;stroke-miterlimit:10;" d="M 107.429688 216.953125 L 106.898438 218.421875 L 105.429688 217.890625 L 105.964844 216.421875 L 107.429688 216.953125 "/>
<path style="fill:none;stroke-width:1;stroke-linecap:butt;stroke-linejoin:miter;stroke:rgb(0%,0%,0%);stroke-opacity:1;stroke-miterlimit:10;" d="M 102.886719 215.878906 L 102.886719 217.441406 L 101.324219 217.441406 L 101.324219 215.878906 L 102.886719 215.878906 "/>
<path style="fill:none;stroke-width:1;stroke-linecap:butt;stroke-linejoin:miter;stroke:rgb(0%,0%,0%);stroke-opacity:1;stroke-miterlimit:10;" d="M 99.285156 215.878906 L 99.285156 217.441406 L 97.722656 217.441406 L 97.722656 215.878906 L 99.285156 215.878906 "/>
<path style="fill:none;stroke-width:1;stroke-linecap:butt;stroke-linejoin:miter;stroke:rgb(0%,0%,0%);stroke-opacity:1;stroke-miterlimit:10;" d="M 94.644531 216.421875 L 95.175781 217.890625 L 93.710938 218.421875 L 93.175781 216.953125 L 94.644531 216.421875 "/>
<path style="fill:none;stroke-width:1;stroke-linecap:butt;stroke-linejoin:miter;stroke:rgb(0%,0%,0%);stroke-opacity:1;stroke-miterlimit:10;" d="M 90.082031 214.050781 L 90.625 217.128906 L 87.546875 217.671875 L 87.003906 214.59375 L 90.082031 214.050781 "/>
<path style="fill:none;stroke-width:1;stroke-linecap:butt;stroke-linejoin:miter;stroke:rgb(0%,0%,0%);stroke-opacity:1;stroke-miterlimit:10;" d="M 81.132812 216.730469 L 82.695312 219.4375 L 79.988281 221 L 78.425781 218.292969 L 81.132812 216.730469 "/>
<path style="fill:none;stroke-width:1;stroke-linecap:butt;stroke-linejoin:miter;stroke:rgb(0%,0%,0%);stroke-opacity:1;stroke-miterlimit:10;" d="M 92.1875 217.128906 L 92.1875 218.691406 L 90.625 218.691406 L 90.625 217.128906 L 92.1875 217.128906 "/>
<path style="fill:none;stroke-width:1;stroke-linecap:butt;stroke-linejoin:miter;stroke:rgb(0%,0%,0%);stroke-opacity:1;stroke-miterlimit:10;" d="M 87.546875 217.671875 L 88.082031 219.140625 L 86.613281 219.675781 L 86.078125 218.207031 L 87.546875 217.671875 "/>
<path style="fill:none;stroke-width:1;stroke-linecap:butt;stroke-linejoin:miter;stroke:rgb(0%,0%,0%);stroke-opacity:1;stroke-miterlimit:10;" d="M 84.164062 218.902344 L 84.699219 220.371094 L 83.230469 220.90625 L 82.695312 219.4375 L 84.164062 218.902344 "/>
<path style="fill:none;stroke-width:1;stroke-linecap:butt;stroke-linejoin:miter;stroke:rgb(0%,0%,0%);stroke-opacity:1;stroke-miterlimit:10;" d="M 79.988281 221 L 80.992188 222.199219 L 79.796875 223.203125 L 78.792969 222.003906 L 79.988281 221 "/>
<path style="fill:none;stroke-width:1;stroke-linecap:butt;stroke-linejoin:miter;stroke:rgb(0%,0%,0%);stroke-opacity:1;stroke-miterlimit:10;" d="M 66.628906 199.246094 L 68.796875 211.554688 L 56.488281 213.726562 L 54.316406 201.414062 L 66.628906 199.246094 "/>
<path style="fill:none;stroke-width:1;stroke-linecap:butt;stroke-linejoin:miter;stroke:rgb(0%,0%,0%);stroke-opacity:1;stroke-miterlimit:10;" d="M 30.824219 209.964844 L 37.074219 220.789062 L 26.25 227.039062 L 20 216.214844 L 30.824219 209.964844 "/>
<path style="fill:none;stroke-width:1;stroke-linecap:butt;stroke-linejoin:miter;stroke:rgb(0%,0%,0%);stroke-opacity:1;stroke-miterlimit:10;" d="M 75.046875 211.554688 L 75.046875 217.804688 L 68.796875 217.804688 L 68.796875 211.554688 L 75.046875 211.554688 "/>
<path style="fill:none;stroke-width:1;stroke-linecap:butt;stroke-linejoin:miter;stroke:rgb(0%,0%,0%);stroke-opacity:1;stroke-miterlimit:10;" d="M 56.488281 213.726562 L 58.625 219.597656 L 52.753906 221.734375 L 50.613281 215.863281 L 56.488281 213.726562 "/>
<path style="fill:none;stroke-width:1;stroke-linecap:butt;stroke-linejoin:miter;stroke:rgb(0%,0%,0%);stroke-opacity:1;stroke-miterlimit:10;" d="M 78.125 218.347656 L 77.582031 221.425781 L 74.503906 220.882812 L 75.046875 217.804688 L 78.125 218.347656 "/>
<path style="fill:none;stroke-width:1;stroke-linecap:butt;stroke-linejoin:miter;stroke:rgb(0%,0%,0%);stroke-opacity:1;stroke-miterlimit:10;" d="M 68.796875 217.804688 L 69.339844 220.882812 L 66.261719 221.425781 L 65.722656 218.347656 L 68.796875 217.804688 "/>
<path style="fill:none;stroke-width:1;stroke-linecap:butt;stroke-linejoin:miter;stroke:rgb(0%,0%,0%);stroke-opacity:1;stroke-miterlimit:10;" d="M 79.050781 221.960938 L 78.515625 223.425781 L 77.046875 222.894531 L 77.582031 221.425781 L 79.050781 221.960938 "/>
<path style="fill:none;stroke-width:1;stroke-linecap:butt;stroke-linejoin:miter;stroke:rgb(0%,0%,0%);stroke-opacity:1;stroke-miterlimit:10;" d="M 74.503906 220.882812 L 74.503906 222.445312 L 72.941406 222.445312 L 72.941406 220.882812 L 74.503906 220.882812 "/>
<path style="fill:none;stroke-width:1;stroke-linecap:butt;stroke-linejoin:miter;stroke:rgb(0%,0%,0%);stroke-opacity:1;stroke-miterlimit:10;" d="M 70.902344 220.882812 L 70.902344 222.445312 L 69.339844 222.445312 L 69.339844 220.882812 L 70.902344 220.882812 "/>
<path style="fill:none;stroke-width:1;stroke-linecap:butt;stroke-linejoin:miter;stroke:rgb(0%,0%,0%);stroke-opacity:1;stroke-miterlimit:10;" d="M 66.261719 221.425781 L 66.796875 222.894531 L 65.328125 223.425781 L 64.796875 221.960938 L 66.261719 221.425781 "/>
<path style="fill:none;stroke-width:1;stroke-linecap:butt;stroke-linejoin:miter;stroke:rgb(0%,0%,0%);stroke-opacity:1;stroke-miterlimit:10;" d="M 61.703125 219.054688 L 62.246094 222.132812 L 59.167969 222.675781 L 58.625 219.597656 L 61.703125 219.054688 "/>
<path style="fill:none;stroke-width:1;stroke-linecap:butt;stroke-linejoin:miter;stroke:rgb(0%,0%,0%);stroke-opacity:1;stroke-miterlimit:10;" d="M 52.753906 221.734375 L 54.316406 224.441406 L 51.609375 226.003906 L 50.046875 223.296875 L 52.753906 221.734375 "/>
<path style="fill:none;stroke-width:1;stroke-linecap:butt;stroke-linejoin:miter;stroke:rgb(0%,0%,0%);stroke-opacity:1;stroke-miterlimit:10;" d="M 63.808594 222.132812 L 63.808594 223.695312 L 62.246094 223.695312 L 62.246094 222.132812 L 63.808594 222.132812 "/>
<path style="fill:none;stroke-width:1;stroke-linecap:butt;stroke-linejoin:miter;stroke:rgb(0%,0%,0%);stroke-opacity:1;stroke-miterlimit:10;" d="M 59.167969 222.675781 L 59.703125 224.144531 L 58.234375 224.679688 L 57.699219 223.210938 L 59.167969 222.675781 "/>
<path style="fill:none;stroke-width:1;stroke-linecap:butt;stroke-linejoin:miter;stroke:rgb(0%,0%,0%);stroke-opacity:1;stroke-miterlimit:10;" d="M 55.785156 223.90625 L 56.316406 225.375 L 54.851562 225.910156 L 54.316406 224.441406 L 55.785156 223.90625 "/>
<path style="fill:none;stroke-width:1;stroke-linecap:butt;stroke-linejoin:miter;stroke:rgb(0%,0%,0%);stroke-opacity:1;stroke-miterlimit:10;" d="M 51.609375 226.003906 L 52.613281 227.203125 L 51.417969 228.207031 L 50.410156 227.007812 L 51.609375 226.003906 "/>
<path style="fill:none;stroke-width:1;stroke-linecap:butt;stroke-linejoin:miter;stroke:rgb(0%,0%,0%);stroke-opacity:1;stroke-miterlimit:10;" d="M 42.949219 218.652344 L 45.085938 224.527344 L 39.214844 226.664062 L 37.074219 220.789062 L 42.949219 218.652344 "/>
<path style="fill:none;stroke-width:1;stroke-linecap:butt;stroke-linejoin:miter;stroke:rgb(0%,0%,0%);stroke-opacity:1;stroke-miterlimit:10;" d="M 26.25 227.039062 L 30.265625 231.828125 L 25.480469 235.847656 L 21.460938 231.058594 L 26.25 227.039062 "/>
<path style="fill:none;stroke-width:1;stroke-linecap:butt;stroke-linejoin:miter;stroke:rgb(0%,0%,0%);stroke-opacity:1;stroke-miterlimit:10;" d="M 48.164062 223.984375 L 48.707031 227.0625 L 45.628906 227.605469 L 45.085938 224.527344 L 48.164062 223.984375 "/>
<path style="fill:none;stroke-width:1;stroke-linecap:butt;stroke-linejoin:miter;stroke:rgb(0%,0%,0%);stroke-opacity:1;stroke-miterlimit:10;" d="M 39.214844 226.664062 L 40.777344 229.371094 L 38.070312 230.933594 L 36.507812 228.226562 L 39.214844 226.664062 "/>
<path style="fill:none;stroke-width:1;stroke-linecap:butt;stroke-linejoin:miter;stroke:rgb(0%,0%,0%);stroke-opacity:1;stroke-miterlimit:10;" d="M 50.269531 227.0625 L 50.269531 228.625 L 48.707031 228.625 L 48.707031 227.0625 L 50.269531 227.0625 "/>
<path style="fill:none;stroke-width:1;stroke-linecap:butt;stroke-linejoin:miter;stroke:rgb(0%,0%,0%);stroke-opacity:1;stroke-miterlimit:10;" d="M 45.628906 227.605469 L 46.164062 229.070312 L 44.695312 229.605469 L 44.160156 228.136719 L 45.628906 227.605469 "/>
<path style="fill:none;stroke-width:1;stroke-linecap:butt;stroke-linejoin:miter;stroke:rgb(0%,0%,0%);stroke-opacity:1;stroke-miterlimit:10;" d="M 42.242188 228.835938 L 42.777344 230.304688 L 41.308594 230.839844 L 40.777344 229.371094 L 42.242188 228.835938 "/>
<path style="fill:none;stroke-width:1;stroke-linecap:butt;stroke-linejoin:miter;stroke:rgb(0%,0%,0%);stroke-opacity:1;stroke-miterlimit:10;" d="M 38.070312 230.933594 L 39.074219 232.128906 L 37.875 233.132812 L 36.871094 231.9375 L 38.070312 230.933594 "/>
<path style="fill:none;stroke-width:1;stroke-linecap:butt;stroke-linejoin:miter;stroke:rgb(0%,0%,0%);stroke-opacity:1;stroke-miterlimit:10;" d="M 32.972656 230.265625 L 34.535156 232.972656 L 31.828125 234.535156 L 30.265625 231.828125 L 32.972656 230.265625 "/>
<path style="fill:none;stroke-width:1;stroke-linecap:butt;stroke-linejoin:miter;stroke:rgb(0%,0%,0%);stroke-opacity:1;stroke-miterlimit:10;" d="M 25.480469 235.847656 L 27.875 237.855469 L 25.863281 240.25 L 23.472656 238.238281 L 25.480469 235.847656 "/>
<path style="fill:none;stroke-width:1;stroke-linecap:butt;stroke-linejoin:miter;stroke:rgb(0%,0%,0%);stroke-opacity:1;stroke-miterlimit:10;" d="M 36.003906 232.4375 L 36.539062 233.90625 L 35.070312 234.441406 L 34.535156 232.972656 L 36.003906 232.4375 "/>
<path style="fill:none;stroke-width:1;stroke-linecap:butt;stroke-linejoin:miter;stroke:rgb(0%,0%,0%);stroke-opacity:1;stroke-miterlimit:10;" d="M 31.828125 234.535156 L 32.835938 235.730469 L 31.636719 236.738281 L 30.632812 235.539062 L 31.828125 234.535156 "/>
<path style="fill:none;stroke-width:1;stroke-linecap:butt;stroke-linejoin:miter;stroke:rgb(0%,0%,0%);stroke-opacity:1;stroke-miterlimit:10;" d="M 29.070312 236.851562 L 30.074219 238.046875 L 28.878906 239.050781 L 27.875 237.855469 L 29.070312 236.851562 "/>
<path style="fill:none;stroke-width:1;stroke-linecap:butt;stroke-linejoin:miter;stroke:rgb(0%,0%,0%);stroke-opacity:1;stroke-miterlimit:10;" d="M 25.863281 240.25 L 27.21875 241.03125 L 26.4375 242.382812 L 25.082031 241.601562 L 25.863281 240.25 "/>
<path style="fill:none;stroke-width:1;stroke-linecap:butt;stroke-linejoin:miter;stroke:rgb(0%,0%,0%);stroke-opacity:1;stroke-miterlimit:10;" d="M 252.648438 0 L 20 0 L 18.039062 0.0976562 L 16.097656 0.382812 L 14.195312 0.859375 L 12.347656 1.523438 L 10.570312 2.363281 L 8.886719 3.371094 L 7.3125 4.539062 L 5.859375 5.859375 L 4.539062 7.3125 L 3.371094 8.886719 L 2.363281 10.570312 L 1.523438 12.347656 L 0.859375 14.195312 L 0.382812 16.097656 L 0.0976562 18.039062 L 0 20 L 0 242.382812 L 0.0976562 244.34375 L 0.382812 246.285156 L 0.859375 248.1875 L 1.523438 250.035156 L 2.363281 251.8125 L 3.371094 253.496094 L 4.539062 255.070312 L 5.859375 256.523438 L 7.3125 257.84375 L 8.886719 259.011719 L 10.570312 260.023438 L 12.347656 260.859375 L 14.195312 261.523438 L 16.097656 262 L 18.039062 262.285156 L 20 262.382812 L 252.648438 262.382812 L 254.609375 262.285156 L 256.550781 262 L 258.457031 261.523438 L 260.304688 260.859375 L 262.078125 260.023438 L 263.761719 259.011719 L 265.339844 257.84375 L 266.792969 256.523438 L 268.109375 255.070312 L 269.28125 253.496094 L 270.289062 251.8125 L 271.128906 250.035156 L 271.789062 248.1875 L 272.265625 246.285156 L 272.554688 244.34375 L 272.648438 242.382812 L 272.648438 20 L 272.554688 18.039062 L 272.265625 16.097656 L 271.789062 14.195312 L 271.128906 12.347656 L 270.289062 10.570312 L 269.28125 8.886719 L 268.109375 7.3125 L 266.792969 5.859375 L 265.339844 4.539062 L 263.761719 3.371094 L 262.078125 2.363281 L 260.304688 1.523438 L 258.457031 0.859375 L 256.550781 0.382812 L 254.609375 0.0976562 L 252.648438 0 "/>
</g>
</svg>
