<?xml version="1.0" encoding="UTF-8"?>
<svg xmlns="http://www.w3.org/2000/svg" xmlns:xlink="http://www.w3.org/1999/xlink" width="120pt" height="122pt" viewBox="0 0 120 122" version="1.1">
<g id="surface136">
<rect x="0" y="0" width="120" height="122" style="fill:rgb(100%,100%,100%);fill-opacity:1;stroke:none;"/>
<path style="fill:none;stroke-width:1;stroke-linecap:butt;stroke-linejoin:miter;stroke:rgb(0%,0%,0%);stroke-opacity:1;stroke-miterlimit:10;" d="M 110 60 L 110 10 L 10 10 L 10 60 L 55.5 60 L 55.5 84.5 L 64.5 84.5 L 64.5 60 L 110 60 "/>
<path style="fill:none;stroke-width:1;stroke-linecap:butt;stroke-linejoin:miter;stroke:rgb(0%,0%,0%);stroke-opacity:1;stroke-miterlimit:10;" d="M 10 62 L 10 112 L 110 112 L 110 62 L 65.5 62 L 65.5 85.5 L 54.5 85.5 L 54.5 62 L 10 62 "/>
<path style="fill:none;stroke-width:1;stroke-linecap:butt;stroke-linejoin:miter;stroke:rgb(0%,0%,0%);stroke-opacity:1;stroke-miterlimit:10;" d="M 110 0 L 10 0 L 9.019531 0.046875 L 8.050781 0.191406 L 7.097656 0.429688 L 6.171875 0.761719 L 5.285156 1.179688 L 4.445312 1.683594 L 3.65625 2.269531 L 2.929688 2.929688 L 2.269531 3.65625 L 1.683594 4.445312 L 1.179688 5.285156 L 0.761719 6.171875 L 0.429688 7.097656 L 0.191406 8.050781 L 0.046875 9.019531 L 0 10 L 0 112 L 0.046875 112.980469 L 0.191406 113.949219 L 0.429688 114.902344 L 0.761719 115.828125 L 1.179688 116.714844 L 1.683594 117.554688 L 2.269531 118.34375 L 2.929688 119.070312 L 3.65625 119.730469 L 4.445312 120.316406 L 5.285156 120.820312 L 6.171875 121.238281 L 7.097656 121.570312 L 8.050781 121.808594 L 9.019531 121.953125 L 10 122 L 110 122 L 110.980469 121.953125 L 111.949219 121.808594 L 112.902344 121.570312 L 113.828125 121.238281 L 114.714844 120.820312 L 115.554688 120.316406 L 116.34375 119.730469 L 117.070312 119.070312 L 117.730469 118.34375 L 118.316406 117.554688 L 118.820312 116.714844 L 119.238281 115.828125 L 119.570312 114.902344 L 119.808594 113.949219 L 119.953125 112.980469 L 120 112 L 120 10 L 119.953125 9.019531 L 119.808594 8.050781 L 119.570312 7.097656 L 119.238281 6.171875 L 118.820312 5.285156 L 118.316406 4.445312 L 117.730469 3.65625 L 117.070312 2.929688 L 116.34375 2.269531 L 115.554688 1.683594 L 114.714844 1.179688 L 113.828125 0.761719 L 112.902344 0.429688 L 111.949219 0.191406 L 110.980469 0.046875 L 110 0 "/>
</g>
</svg>
