<?xml version="1.0" encoding="UTF-8"?>
<svg xmlns="http://www.w3.org/2000/svg" xmlns:xlink="http://www.w3.org/1999/xlink" width="201.246094mm" height="55.523438mm" viewBox="0 0 201.246094 55.523438" version="1.1">
<g id="surface131">
<path style=" stroke:none;fill-rule:nonzero;fill:rgb(100%,100%,100%);fill-opacity:1;" d="M 0 0 L 201.246094 0 L 201.246094 55.523438 L 0 55.523438 Z M 0 0 "/>
<path style="fill:none;stroke-width:1;stroke-linecap:butt;stroke-linejoin:miter;stroke:rgb(0%,0%,0%);stroke-opacity:1;stroke-miterlimit:10;" d="M 40.175781 38.8125 L 40.175781 18.75 L 40.359375 16.3125 L 40.621094 15.527344 L 41.035156 14.980469 L 41.601562 14.613281 L 42.363281 14.394531 L 44.519531 14.203125 L 44.683594 13.863281 L 44.742188 13.382812 L 44.683594 12.902344 L 44.519531 12.5625 L 38.019531 12.65625 L 31.566406 12.5625 L 31.394531 12.902344 L 31.34375 13.382812 L 31.394531 13.863281 L 31.566406 14.203125 L 33.71875 14.394531 L 34.480469 14.613281 L 35.058594 14.980469 L 35.460938 15.527344 L 35.734375 16.3125 L 35.925781 18.75 L 35.925781 26.75 L 18.816406 26.75 L 18.816406 18.75 L 19 16.3125 L 19.269531 15.527344 L 19.683594 14.980469 L 20.25 14.613281 L 21.015625 14.394531 L 23.175781 14.203125 L 23.339844 13.863281 L 23.398438 13.382812 L 23.339844 12.902344 L 23.175781 12.5625 L 16.675781 12.65625 L 10.222656 12.5625 L 10.050781 12.902344 L 10 13.382812 L 10.050781 13.863281 L 10.222656 14.203125 L 12.375 14.394531 L 13.128906 14.613281 L 13.707031 14.980469 L 14.109375 15.527344 L 14.378906 16.3125 L 14.566406 18.75 L 14.566406 38.8125 L 14.378906 41.242188 L 14.109375 42.023438 L 13.707031 42.578125 L 13.128906 42.9375 L 12.375 43.164062 L 10.222656 43.359375 L 10.050781 43.699219 L 10 44.179688 L 10.050781 44.660156 L 10.222656 45 L 16.722656 44.90625 L 23.175781 45 L 23.339844 44.660156 L 23.398438 44.179688 L 23.339844 43.699219 L 23.175781 43.359375 L 21.015625 43.164062 L 20.25 42.9375 L 19.683594 42.578125 L 19.269531 42.023438 L 19 41.242188 L 18.816406 38.8125 L 18.816406 28.859375 L 35.925781 28.859375 L 35.925781 38.8125 L 35.734375 41.242188 L 35.460938 42.023438 L 35.058594 42.578125 L 34.480469 42.9375 L 33.71875 43.164062 L 31.566406 43.359375 L 31.394531 43.699219 L 31.34375 44.179688 L 31.394531 44.660156 L 31.566406 45 L 38.066406 44.90625 L 44.519531 45 L 44.683594 44.660156 L 44.742188 44.179688 L 44.683594 43.699219 L 44.519531 43.359375 L 42.363281 43.164062 L 41.601562 42.9375 L 41.035156 42.578125 L 40.621094 42.023438 L 40.359375 41.242188 L 40.175781 38.8125 "/>
<path style="fill:none;stroke-width:1;stroke-linecap:butt;stroke-linejoin:miter;stroke:rgb(0%,0%,0%);stroke-opacity:1;stroke-miterlimit:10;" d="M 50.269531 14.953125 L 50.472656 15.90625 L 51.019531 16.742188 L 51.789062 17.335938 L 52.675781 17.5625 L 53.664062 17.339844 L 54.492188 16.769531 L 55.054688 15.992188 L 55.269531 15.15625 L 55.082031 14.242188 L 54.574219 13.40625 L 53.8125 12.796875 L 52.863281 12.5625 L 51.953125 12.765625 L 51.121094 13.304688 L 50.503906 14.070312 L 50.269531 14.953125 "/>
<path style="fill:none;stroke-width:1;stroke-linecap:butt;stroke-linejoin:miter;stroke:rgb(0%,0%,0%);stroke-opacity:1;stroke-miterlimit:10;" d="M 54.816406 38.8125 L 54.816406 28.859375 L 55.019531 23.15625 L 54.84375 22.90625 L 54.363281 22.8125 L 51.695312 23.570312 L 47.519531 24.25 L 47.496094 24.957031 L 47.613281 25.65625 L 49.257812 25.910156 L 49.824219 26.105469 L 50.25 26.398438 L 50.542969 26.800781 L 50.734375 27.363281 L 50.863281 29.0625 L 50.863281 38.8125 L 50.726562 41.230469 L 50.523438 42 L 50.207031 42.542969 L 49.738281 42.898438 L 49.113281 43.121094 L 47.269531 43.359375 L 47.097656 43.699219 L 47.046875 44.179688 L 47.097656 44.660156 L 47.269531 45 L 52.863281 44.90625 L 58.425781 45 L 58.589844 44.660156 L 58.648438 44.179688 L 58.589844 43.699219 L 58.425781 43.359375 L 56.566406 43.144531 L 55.933594 42.921875 L 55.472656 42.5625 L 55.148438 42.015625 L 54.945312 41.238281 L 54.816406 38.8125 "/>
<path style="fill:none;stroke-width:1;stroke-linecap:butt;stroke-linejoin:miter;stroke:rgb(0%,0%,0%);stroke-opacity:1;stroke-miterlimit:10;" d="M 81.976562 25 L 82.140625 24.660156 L 82.199219 24.179688 L 82.140625 23.699219 L 81.976562 23.359375 L 76.914062 23.453125 L 72.367188 23.359375 L 72.195312 23.699219 L 72.144531 24.179688 L 72.195312 24.660156 L 72.367188 25 L 73.832031 25.261719 L 74.835938 25.792969 L 75.589844 26.765625 L 76.320312 28.359375 L 82.867188 44.5 L 83.390625 45.261719 L 84.070312 45.5 L 84.707031 45.25 L 85.273438 44.40625 L 90.320312 32.109375 L 95.476562 44.5 L 95.992188 45.261719 L 96.664062 45.5 L 97.300781 45.257812 L 97.820312 44.453125 L 104.320312 28.609375 L 104.980469 27.21875 L 105.804688 26.113281 L 106.949219 25.34375 L 108.570312 25 L 108.734375 24.660156 L 108.792969 24.179688 L 108.734375 23.699219 L 108.570312 23.359375 L 104.976562 23.453125 L 99.867188 23.359375 L 99.695312 23.699219 L 99.644531 24.179688 L 99.695312 24.660156 L 99.867188 25 L 101.074219 25.128906 L 101.9375 25.371094 L 102.484375 25.699219 L 102.785156 26.121094 L 102.871094 26.609375 L 102.796875 27.160156 L 102.367188 28.40625 L 98.226562 38.8125 L 97.894531 39.515625 L 97.628906 39.773438 L 97.371094 39.59375 L 97.070312 39 L 92.773438 28.0625 L 92.304688 26.613281 L 92.257812 26.105469 L 92.363281 25.722656 L 92.628906 25.433594 L 93.085938 25.230469 L 94.617188 25 L 94.78125 24.660156 L 94.839844 24.179688 L 94.78125 23.699219 L 94.617188 23.359375 L 89.617188 23.453125 L 85.226562 23.359375 L 85.050781 23.699219 L 84.992188 24.179688 L 85.050781 24.660156 L 85.226562 25 L 86.679688 25.402344 L 87.664062 26.21875 L 88.375 27.398438 L 89.023438 28.90625 L 89.367188 29.703125 L 85.867188 38.5625 L 85.457031 39.5 L 85.144531 39.84375 L 84.824219 39.566406 L 84.414062 38.65625 L 80.414062 28.359375 L 79.941406 26.835938 L 79.957031 25.835938 L 80.1875 25.492188 L 80.589844 25.25 L 81.976562 25 "/>
<path style="fill:none;stroke-width:1;stroke-linecap:butt;stroke-linejoin:miter;stroke:rgb(0%,0%,0%);stroke-opacity:1;stroke-miterlimit:10;" d="M 111.214844 34.65625 L 111.371094 36.578125 L 111.855469 38.484375 L 112.664062 40.289062 L 113.804688 41.941406 L 115.269531 43.34375 L 117.078125 44.441406 L 119.222656 45.148438 L 121.714844 45.40625 L 123.964844 45.207031 L 125.929688 44.644531 L 127.605469 43.761719 L 129.011719 42.609375 L 130.476562 40.820312 L 131.511719 38.761719 L 132.121094 36.523438 L 132.324219 34.203125 L 132.183594 32.222656 L 131.753906 30.246094 L 131.011719 28.351562 L 129.9375 26.625 L 128.496094 25.136719 L 126.683594 23.976562 L 124.464844 23.21875 L 121.824219 22.953125 L 119.449219 23.195312 L 117.324219 23.898438 L 115.480469 25 L 113.964844 26.453125 L 112.773438 28.195312 L 111.914062 30.179688 L 111.390625 32.34375 L 111.214844 34.65625 "/>
<path style="fill:none;stroke-width:1;stroke-linecap:butt;stroke-linejoin:miter;stroke:rgb(0%,0%,0%);stroke-opacity:1;stroke-miterlimit:10;" d="M 121.074219 24.703125 L 122.601562 24.882812 L 123.96875 25.421875 L 125.152344 26.3125 L 126.152344 27.554688 L 126.945312 29.125 L 127.527344 31.035156 L 127.886719 33.261719 L 128.011719 35.8125 L 127.867188 37.953125 L 127.464844 39.691406 L 126.855469 41.058594 L 126.09375 42.09375 L 125.214844 42.828125 L 124.277344 43.3125 L 123.328125 43.574219 L 122.417969 43.65625 L 121.476562 43.582031 L 120.621094 43.375 L 119.140625 42.609375 L 117.941406 41.453125 L 117.011719 40.023438 L 116.320312 38.40625 L 115.855469 36.714844 L 115.589844 35.042969 L 115.511719 33.5 L 115.746094 30.289062 L 116.082031 28.804688 L 116.605469 27.472656 L 117.335938 26.335938 L 118.304688 25.464844 L 119.539062 24.898438 L 121.074219 24.703125 "/>
<path style="fill:none;stroke-width:1;stroke-linecap:butt;stroke-linejoin:miter;stroke:rgb(0%,0%,0%);stroke-opacity:1;stroke-miterlimit:10;" d="M 143.167969 27 L 143.007812 24.554688 L 142.777344 23.203125 L 142.566406 22.929688 L 142.167969 22.8125 L 139.863281 23.570312 L 136.027344 24.25 L 135.996094 24.957031 L 136.121094 25.65625 L 137.765625 25.882812 L 138.332031 26.074219 L 138.757812 26.363281 L 139.050781 26.769531 L 139.242188 27.335938 L 139.371094 29.0625 L 139.371094 38.8125 L 139.226562 41.238281 L 139.015625 42.015625 L 138.683594 42.5625 L 138.199219 42.921875 L 137.554688 43.144531 L 135.667969 43.359375 L 135.496094 43.699219 L 135.445312 44.179688 L 135.496094 44.660156 L 135.667969 45 L 141.371094 44.90625 L 147.417969 45 L 147.582031 44.660156 L 147.640625 44.179688 L 147.582031 43.699219 L 147.417969 43.359375 L 145.300781 43.121094 L 144.582031 42.898438 L 144.058594 42.542969 L 143.691406 42 L 143.46875 41.230469 L 143.324219 38.8125 L 143.324219 31.859375 L 143.421875 30.910156 L 143.695312 30.03125 L 144.527344 28.5 L 145.652344 26.980469 L 146.28125 26.328125 L 146.824219 26.0625 L 147.484375 26.195312 L 148.074219 26.703125 L 148.808594 27.46875 L 149.304688 27.746094 L 149.917969 27.859375 L 150.792969 27.644531 L 151.546875 27.078125 L 152.074219 26.277344 L 152.277344 25.359375 L 152.101562 24.578125 L 151.5625 23.796875 L 150.628906 23.191406 L 149.277344 22.953125 L 148.40625 23.046875 L 147.574219 23.324219 L 146.042969 24.296875 L 144.738281 25.632812 L 143.714844 27.109375 L 143.5 27.355469 L 143.328125 27.351562 L 143.167969 27 "/>
<path style="fill:none;stroke-width:1;stroke-linecap:butt;stroke-linejoin:miter;stroke:rgb(0%,0%,0%);stroke-opacity:1;stroke-miterlimit:10;" d="M 157.71875 38.8125 L 157.582031 41.242188 L 157.378906 42.023438 L 157.0625 42.578125 L 156.59375 42.9375 L 155.96875 43.164062 L 154.125 43.359375 L 153.949219 43.699219 L 153.890625 44.179688 L 153.949219 44.660156 L 154.125 45 L 159.71875 44.90625 L 165.265625 45 L 165.429688 44.660156 L 165.488281 44.179688 L 165.429688 43.699219 L 165.265625 43.359375 L 163.417969 43.164062 L 162.785156 42.9375 L 162.324219 42.578125 L 162.003906 42.023438 L 161.800781 41.242188 L 161.671875 38.8125 L 161.671875 15.75 L 161.773438 11.90625 L 161.875 10.5 L 161.714844 10.121094 L 161.21875 10 L 158 10.808594 L 154.21875 11.359375 L 154.21875 12.144531 L 154.515625 12.859375 L 156.238281 13.054688 L 156.804688 13.25 L 157.207031 13.574219 L 157.46875 14.058594 L 157.625 14.757812 L 157.71875 16.953125 L 157.71875 38.8125 "/>
<path style="fill:none;stroke-width:1;stroke-linecap:butt;stroke-linejoin:miter;stroke:rgb(0%,0%,0%);stroke-opacity:1;stroke-miterlimit:10;" d="M 183.417969 38.703125 L 183.28125 39.8125 L 182.621094 40.65625 L 181.273438 41.703125 L 180.039062 42.457031 L 178.914062 42.910156 L 177.917969 43.0625 L 176.902344 42.921875 L 175.914062 42.5 L 174.984375 41.792969 L 174.152344 40.804688 L 173.441406 39.511719 L 172.894531 37.929688 L 172.539062 36.042969 L 172.417969 33.859375 L 172.535156 31.441406 L 172.863281 29.570312 L 173.324219 28.175781 L 173.871094 27.203125 L 174.46875 26.417969 L 175.105469 25.820312 L 176.394531 25.074219 L 177.578125 24.761719 L 178.511719 24.703125 L 179.769531 24.820312 L 180.847656 25.171875 L 181.769531 25.734375 L 182.574219 26.5 L 183.253906 27.574219 L 183.417969 29.203125 L 183.417969 38.703125 "/>
<path style="fill:none;stroke-width:1;stroke-linecap:butt;stroke-linejoin:miter;stroke:rgb(0%,0%,0%);stroke-opacity:1;stroke-miterlimit:10;" d="M 182.871094 42.40625 L 183.304688 42.222656 L 183.507812 42.269531 L 183.621094 42.453125 L 183.929688 44.398438 L 184.167969 45.40625 L 184.683594 45.523438 L 185.121094 45.40625 L 186.070312 44.757812 L 187.332031 44.195312 L 188.957031 43.734375 L 191.011719 43.40625 L 191.246094 42.734375 L 191.011719 42.0625 L 189.09375 41.726562 L 188.453125 41.4375 L 187.996094 41.058594 L 187.679688 40.570312 L 187.488281 39.976562 L 187.371094 38.40625 L 187.371094 15.75 L 187.472656 11.90625 L 187.574219 10.5 L 187.414062 10.121094 L 186.917969 10 L 183.699219 10.808594 L 179.917969 11.359375 L 179.917969 12.144531 L 180.214844 12.859375 L 181.8125 12.964844 L 182.367188 13.105469 L 182.792969 13.382812 L 183.089844 13.84375 L 183.28125 14.558594 L 183.417969 16.953125 L 183.417969 23.359375 L 183.324219 23.714844 L 182.964844 23.8125 L 181.558594 23.382812 L 180.34375 23.082031 L 179.074219 22.953125 L 176.785156 23.152344 L 174.832031 23.742188 L 173.121094 24.683594 L 171.574219 25.953125 L 170.121094 27.714844 L 169.039062 29.777344 L 168.355469 32.121094 L 168.121094 34.75 L 168.261719 36.972656 L 168.6875 39.007812 L 169.382812 40.820312 L 170.34375 42.386719 L 171.550781 43.652344 L 173.011719 44.605469 L 174.699219 45.199219 L 176.621094 45.40625 L 178.074219 45.21875 L 179.558594 44.65625 L 181.128906 43.71875 L 182.871094 42.40625 "/>
<path style="fill:none;stroke-width:1;stroke-linecap:butt;stroke-linejoin:miter;stroke:rgb(0%,0%,0%);stroke-opacity:1;stroke-miterlimit:10;" d="M 191.246094 0 L 10 0 L 9.019531 0.046875 L 8.050781 0.191406 L 7.097656 0.429688 L 6.171875 0.761719 L 5.285156 1.179688 L 4.445312 1.683594 L 3.65625 2.269531 L 2.929688 2.929688 L 2.269531 3.65625 L 1.683594 4.445312 L 1.179688 5.285156 L 0.761719 6.171875 L 0.429688 7.097656 L 0.191406 8.050781 L 0.046875 9.019531 L 0 10 L 0 45.523438 L 0.046875 46.503906 L 0.191406 47.472656 L 0.429688 48.425781 L 0.761719 49.351562 L 1.179688 50.238281 L 1.683594 51.078125 L 2.269531 51.867188 L 2.929688 52.59375 L 3.65625 53.253906 L 4.445312 53.839844 L 5.285156 54.34375 L 6.171875 54.761719 L 7.097656 55.09375 L 8.050781 55.332031 L 9.019531 55.476562 L 10 55.523438 L 191.246094 55.523438 L 192.226562 55.476562 L 193.195312 55.332031 L 194.148438 55.09375 L 195.074219 54.761719 L 195.960938 54.34375 L 196.800781 53.839844 L 197.589844 53.253906 L 198.316406 52.59375 L 198.976562 51.867188 L 199.5625 51.078125 L 200.066406 50.238281 L 200.484375 49.351562 L 200.816406 48.425781 L 201.054688 47.472656 L 201.199219 46.503906 L 201.246094 45.523438 L 201.246094 10 L 201.199219 9.019531 L 201.054688 8.050781 L 200.816406 7.097656 L 200.484375 6.171875 L 200.066406 5.285156 L 199.5625 4.445312 L 198.976562 3.65625 L 198.316406 2.929688 L 197.589844 2.269531 L 196.800781 1.683594 L 195.960938 1.179688 L 195.074219 0.761719 L 194.148438 0.429688 L 193.195312 0.191406 L 192.226562 0.046875 L 191.246094 0 "/>
</g>
</svg>
